<mxfile host="app.diagrams.net" modified="2023-02-07T11:24:38.962Z" agent="5.0 (Macintosh; Intel Mac OS X 10_15_7) AppleWebKit/537.36 (KHTML, like Gecko) Chrome/109.0.0.0 Safari/537.36" etag="uWUuDr1LlWPM7w9zJhTu" version="20.8.16" type="github" pages="4">
  <diagram id="a45cf8ec-cd66-6f27-3ac3-be6e809c9e4a" name="SAN">
    <mxGraphModel dx="5336" dy="3625" grid="1" gridSize="10" guides="1" tooltips="1" connect="1" arrows="1" fold="1" page="1" pageScale="1" pageWidth="827" pageHeight="1169" background="none" math="0" shadow="0">
      <root>
        <mxCell id="0" />
        <mxCell id="1" parent="0" />
        <mxCell id="oKsl3EcDswWhEAN2bmV5-174" value="Кластер Voip" style="text;html=1;align=center;verticalAlign=middle;resizable=0;points=[];autosize=1;strokeColor=none;fillColor=none;fontSize=20;" parent="1" vertex="1">
          <mxGeometry x="2011" y="565" width="140" height="40" as="geometry" />
        </mxCell>
        <mxCell id="oKsl3EcDswWhEAN2bmV5-173" value="" style="rounded=1;whiteSpace=wrap;html=1;shadow=0;strokeColor=none;fillColor=#BAC8D3;gradientColor=none;fontSize=18;fontColor=#F08705;opacity=40;fontStyle=0;strokeWidth=3;arcSize=10;movable=1;resizable=1;rotatable=1;deletable=1;editable=1;connectable=1;noLabel=0;" parent="1" vertex="1">
          <mxGeometry x="1750" y="530" width="480" height="200" as="geometry" />
        </mxCell>
        <mxCell id="Fhrh1YmYtMzLOMzCzocy-174" value="" style="rounded=1;whiteSpace=wrap;html=1;shadow=0;strokeColor=none;fillColor=#BAC8D3;gradientColor=none;fontSize=18;fontColor=#F08705;opacity=40;fontStyle=0;strokeWidth=3;arcSize=10;movable=1;resizable=1;rotatable=1;deletable=1;editable=1;connectable=1;noLabel=0;" parent="1" vertex="1">
          <mxGeometry x="710" y="760" width="500" height="430" as="geometry" />
        </mxCell>
        <mxCell id="yHPnFoI3MqznKNpEtGCL-171" value="" style="rounded=1;whiteSpace=wrap;html=1;shadow=0;strokeColor=none;fillColor=#BAC8D3;gradientColor=none;fontSize=18;fontColor=#F08705;opacity=40;fontStyle=0;strokeWidth=3;arcSize=10;movable=1;resizable=1;rotatable=1;deletable=1;editable=1;connectable=1;noLabel=0;" parent="1" vertex="1">
          <mxGeometry x="1230" y="760" width="500" height="430" as="geometry" />
        </mxCell>
        <mxCell id="PzqO3iqtHf5u_YSaCjl1-176" value="" style="rounded=1;whiteSpace=wrap;html=1;shadow=0;strokeColor=none;fillColor=#BAC8D3;gradientColor=none;fontSize=18;fontColor=#F08705;opacity=40;fontStyle=0;strokeWidth=3;arcSize=10;movable=1;resizable=1;rotatable=1;deletable=1;editable=1;connectable=1;noLabel=0;" parent="1" vertex="1">
          <mxGeometry x="702" y="-63.75" width="1178" height="560" as="geometry" />
        </mxCell>
        <mxCell id="3" value="" style="rounded=1;whiteSpace=wrap;html=1;shadow=0;strokeColor=none;fillColor=#BAC8D3;gradientColor=none;fontSize=18;fontColor=#F08705;opacity=40;fontStyle=0;strokeWidth=3;arcSize=10;movable=1;resizable=1;rotatable=1;deletable=1;editable=1;connectable=1;noLabel=0;" parent="1" vertex="1">
          <mxGeometry x="-340" y="760" width="960" height="450" as="geometry" />
        </mxCell>
        <mxCell id="30fCOcxRf9-i1ujDUc_0-206" value="" style="rounded=1;whiteSpace=wrap;html=1;shadow=0;strokeColor=none;fillColor=#BAC8D3;gradientColor=none;fontSize=18;fontColor=#F08705;opacity=40;fontStyle=0;strokeWidth=3;arcSize=10;movable=1;resizable=1;rotatable=1;deletable=1;editable=1;connectable=1;noLabel=0;" parent="1" vertex="1">
          <mxGeometry x="-320" y="-41.25" width="970" height="390" as="geometry" />
        </mxCell>
        <mxCell id="F7227lhovemkw8aJHnXB-172" value="" style="rounded=1;whiteSpace=wrap;html=1;shadow=0;strokeColor=none;fillColor=#BAC8D3;gradientColor=none;fontSize=18;fontColor=#F08705;opacity=40;fontStyle=0;strokeWidth=3;arcSize=10;movable=1;resizable=1;rotatable=1;deletable=1;editable=1;connectable=1;noLabel=0;" parent="1" vertex="1">
          <mxGeometry x="730" y="20" width="307.5" height="328.75" as="geometry" />
        </mxCell>
        <mxCell id="168" value="SAN-Network" style="text;html=1;strokeColor=none;fillColor=none;align=center;verticalAlign=middle;whiteSpace=wrap;overflow=hidden;shadow=0;fontSize=36;fontColor=#AE4132;fontStyle=0" parent="1" vertex="1">
          <mxGeometry x="251" y="-130" width="1380" height="45" as="geometry" />
        </mxCell>
        <mxCell id="171" style="edgeStyle=orthogonalEdgeStyle;rounded=0;jumpStyle=none;html=1;exitX=0;exitY=0.5;entryX=0;entryY=0.5;shadow=0;labelBackgroundColor=none;startArrow=none;startFill=0;endArrow=classic;endFill=1;endSize=6;jettySize=auto;orthogonalLoop=1;strokeColor=#23445D;strokeWidth=2;fillColor=#F08705;fontFamily=Helvetica;fontSize=14;fontColor=#F08705;align=left;fontStyle=0" parent="1" source="168" target="168" edge="1">
          <mxGeometry relative="1" as="geometry" />
        </mxCell>
        <mxCell id="2BS8JYeTeqOyGn4AyfB2-174" value="" style="sketch=0;pointerEvents=1;shadow=0;dashed=0;html=1;strokeColor=none;fillColor=#005F4B;labelPosition=center;verticalLabelPosition=bottom;verticalAlign=top;align=center;outlineConnect=0;shape=mxgraph.veeam2.physical_switch;" parent="1" vertex="1">
          <mxGeometry x="567" y="530" width="240" height="40" as="geometry" />
        </mxCell>
        <mxCell id="2BS8JYeTeqOyGn4AyfB2-179" value="" style="sketch=0;pointerEvents=1;shadow=0;dashed=0;html=1;strokeColor=none;fillColor=#005F4B;labelPosition=center;verticalLabelPosition=bottom;verticalAlign=top;align=center;outlineConnect=0;shape=mxgraph.veeam2.physical_switch;" parent="1" vertex="1">
          <mxGeometry x="897" y="530" width="240" height="40" as="geometry" />
        </mxCell>
        <mxCell id="2BS8JYeTeqOyGn4AyfB2-183" style="rounded=0;orthogonalLoop=1;jettySize=auto;html=1;" parent="1" source="2BS8JYeTeqOyGn4AyfB2-180" target="2BS8JYeTeqOyGn4AyfB2-174" edge="1">
          <mxGeometry relative="1" as="geometry" />
        </mxCell>
        <mxCell id="30fCOcxRf9-i1ujDUc_0-188" value="S1-P0-F0" style="edgeLabel;html=1;align=center;verticalAlign=middle;resizable=0;points=[];" parent="2BS8JYeTeqOyGn4AyfB2-183" vertex="1" connectable="0">
          <mxGeometry x="0.1282" relative="1" as="geometry">
            <mxPoint x="-40" y="51" as="offset" />
          </mxGeometry>
        </mxCell>
        <mxCell id="2BS8JYeTeqOyGn4AyfB2-184" style="rounded=0;orthogonalLoop=1;jettySize=auto;html=1;" parent="1" source="2BS8JYeTeqOyGn4AyfB2-180" target="2BS8JYeTeqOyGn4AyfB2-179" edge="1">
          <mxGeometry relative="1" as="geometry" />
        </mxCell>
        <mxCell id="30fCOcxRf9-i1ujDUc_0-189" value="S1-P1-F1" style="edgeLabel;html=1;align=center;verticalAlign=middle;resizable=0;points=[];" parent="2BS8JYeTeqOyGn4AyfB2-184" vertex="1" connectable="0">
          <mxGeometry x="0.0875" y="-1" relative="1" as="geometry">
            <mxPoint x="-101" y="45" as="offset" />
          </mxGeometry>
        </mxCell>
        <mxCell id="2BS8JYeTeqOyGn4AyfB2-180" value="" style="shape=mxgraph.rack.ibm.ibm_x3650_m4;html=1;labelPosition=right;align=left;spacingLeft=15;dashed=0;shadow=0;fillColor=#ffffff;" parent="1" vertex="1">
          <mxGeometry x="-190" y="920" width="161" height="30" as="geometry" />
        </mxCell>
        <mxCell id="2BS8JYeTeqOyGn4AyfB2-185" style="edgeStyle=none;rounded=0;orthogonalLoop=1;jettySize=auto;html=1;" parent="1" source="2BS8JYeTeqOyGn4AyfB2-181" target="2BS8JYeTeqOyGn4AyfB2-174" edge="1">
          <mxGeometry relative="1" as="geometry" />
        </mxCell>
        <mxCell id="30fCOcxRf9-i1ujDUc_0-190" value="S2-P0-F0" style="edgeLabel;html=1;align=center;verticalAlign=middle;resizable=0;points=[];" parent="2BS8JYeTeqOyGn4AyfB2-185" vertex="1" connectable="0">
          <mxGeometry x="-0.3026" y="1" relative="1" as="geometry">
            <mxPoint y="-3" as="offset" />
          </mxGeometry>
        </mxCell>
        <mxCell id="2BS8JYeTeqOyGn4AyfB2-186" style="edgeStyle=none;rounded=0;orthogonalLoop=1;jettySize=auto;html=1;" parent="1" source="2BS8JYeTeqOyGn4AyfB2-181" target="2BS8JYeTeqOyGn4AyfB2-179" edge="1">
          <mxGeometry relative="1" as="geometry" />
        </mxCell>
        <mxCell id="30fCOcxRf9-i1ujDUc_0-193" value="S2-P1-F1" style="edgeLabel;html=1;align=center;verticalAlign=middle;resizable=0;points=[];" parent="2BS8JYeTeqOyGn4AyfB2-186" vertex="1" connectable="0">
          <mxGeometry x="-0.304" y="-1" relative="1" as="geometry">
            <mxPoint y="-4" as="offset" />
          </mxGeometry>
        </mxCell>
        <mxCell id="2BS8JYeTeqOyGn4AyfB2-181" value="" style="shape=mxgraph.rack.ibm.ibm_x3650_m4;html=1;labelPosition=right;align=left;spacingLeft=15;dashed=0;shadow=0;fillColor=#ffffff;" parent="1" vertex="1">
          <mxGeometry x="131.5" y="920" width="161" height="30" as="geometry" />
        </mxCell>
        <mxCell id="2BS8JYeTeqOyGn4AyfB2-187" style="edgeStyle=none;rounded=0;orthogonalLoop=1;jettySize=auto;html=1;" parent="1" source="2BS8JYeTeqOyGn4AyfB2-182" target="2BS8JYeTeqOyGn4AyfB2-174" edge="1">
          <mxGeometry relative="1" as="geometry" />
        </mxCell>
        <mxCell id="30fCOcxRf9-i1ujDUc_0-192" value="S3-P0-F0" style="edgeLabel;html=1;align=center;verticalAlign=middle;resizable=0;points=[];" parent="2BS8JYeTeqOyGn4AyfB2-187" vertex="1" connectable="0">
          <mxGeometry x="-0.3058" relative="1" as="geometry">
            <mxPoint x="-3" y="-3" as="offset" />
          </mxGeometry>
        </mxCell>
        <mxCell id="2BS8JYeTeqOyGn4AyfB2-188" style="edgeStyle=none;rounded=0;orthogonalLoop=1;jettySize=auto;html=1;" parent="1" source="2BS8JYeTeqOyGn4AyfB2-182" target="2BS8JYeTeqOyGn4AyfB2-179" edge="1">
          <mxGeometry relative="1" as="geometry" />
        </mxCell>
        <mxCell id="30fCOcxRf9-i1ujDUc_0-194" value="S3-P1-F1" style="edgeLabel;html=1;align=center;verticalAlign=middle;resizable=0;points=[];" parent="2BS8JYeTeqOyGn4AyfB2-188" vertex="1" connectable="0">
          <mxGeometry x="-0.3091" y="-2" relative="1" as="geometry">
            <mxPoint y="-3" as="offset" />
          </mxGeometry>
        </mxCell>
        <mxCell id="2BS8JYeTeqOyGn4AyfB2-182" value="" style="shape=mxgraph.rack.ibm.ibm_x3650_m4;html=1;labelPosition=right;align=left;spacingLeft=15;dashed=0;shadow=0;fillColor=#ffffff;" parent="1" vertex="1">
          <mxGeometry x="416" y="920" width="161" height="30" as="geometry" />
        </mxCell>
        <mxCell id="30fCOcxRf9-i1ujDUc_0-176" value="Fabric-0" style="text;html=1;align=center;verticalAlign=middle;resizable=0;points=[];autosize=1;strokeColor=none;fillColor=none;" parent="1" vertex="1">
          <mxGeometry x="567" y="500" width="70" height="30" as="geometry" />
        </mxCell>
        <mxCell id="30fCOcxRf9-i1ujDUc_0-177" value="Fabric-1" style="text;html=1;align=center;verticalAlign=middle;resizable=0;points=[];autosize=1;strokeColor=none;fillColor=none;" parent="1" vertex="1">
          <mxGeometry x="906" y="500" width="70" height="30" as="geometry" />
        </mxCell>
        <mxCell id="30fCOcxRf9-i1ujDUc_0-197" style="edgeStyle=none;rounded=0;orthogonalLoop=1;jettySize=auto;html=1;" parent="1" source="30fCOcxRf9-i1ujDUc_0-181" target="2BS8JYeTeqOyGn4AyfB2-174" edge="1">
          <mxGeometry relative="1" as="geometry" />
        </mxCell>
        <mxCell id="30fCOcxRf9-i1ujDUc_0-201" value="S1-SC1-P0-F0" style="edgeLabel;html=1;align=center;verticalAlign=middle;resizable=0;points=[];" parent="30fCOcxRf9-i1ujDUc_0-197" vertex="1" connectable="0">
          <mxGeometry x="-0.1562" y="-1" relative="1" as="geometry">
            <mxPoint x="-14" y="30" as="offset" />
          </mxGeometry>
        </mxCell>
        <mxCell id="30fCOcxRf9-i1ujDUc_0-198" style="edgeStyle=none;rounded=0;orthogonalLoop=1;jettySize=auto;html=1;" parent="1" source="30fCOcxRf9-i1ujDUc_0-181" target="2BS8JYeTeqOyGn4AyfB2-179" edge="1">
          <mxGeometry relative="1" as="geometry" />
        </mxCell>
        <mxCell id="30fCOcxRf9-i1ujDUc_0-204" value="S1-SC1-P1-F1" style="edgeLabel;html=1;align=center;verticalAlign=middle;resizable=0;points=[];" parent="30fCOcxRf9-i1ujDUc_0-198" vertex="1" connectable="0">
          <mxGeometry x="0.1449" relative="1" as="geometry">
            <mxPoint as="offset" />
          </mxGeometry>
        </mxCell>
        <mxCell id="30fCOcxRf9-i1ujDUc_0-181" value="" style="sketch=0;pointerEvents=1;shadow=0;dashed=0;html=1;strokeColor=none;fillColor=#005F4B;labelPosition=center;verticalLabelPosition=bottom;verticalAlign=top;align=center;outlineConnect=0;shape=mxgraph.veeam2.storage;" parent="1" vertex="1">
          <mxGeometry x="-214" y="198.75" width="202" height="60" as="geometry" />
        </mxCell>
        <mxCell id="30fCOcxRf9-i1ujDUc_0-199" style="edgeStyle=none;rounded=0;orthogonalLoop=1;jettySize=auto;html=1;" parent="1" source="30fCOcxRf9-i1ujDUc_0-182" target="2BS8JYeTeqOyGn4AyfB2-174" edge="1">
          <mxGeometry relative="1" as="geometry" />
        </mxCell>
        <mxCell id="30fCOcxRf9-i1ujDUc_0-203" value="S1-SC2-P0-F0" style="edgeLabel;html=1;align=center;verticalAlign=middle;resizable=0;points=[];" parent="30fCOcxRf9-i1ujDUc_0-199" vertex="1" connectable="0">
          <mxGeometry x="0.1646" y="-2" relative="1" as="geometry">
            <mxPoint x="-4" as="offset" />
          </mxGeometry>
        </mxCell>
        <mxCell id="30fCOcxRf9-i1ujDUc_0-200" style="edgeStyle=none;rounded=0;orthogonalLoop=1;jettySize=auto;html=1;" parent="1" source="30fCOcxRf9-i1ujDUc_0-182" target="2BS8JYeTeqOyGn4AyfB2-179" edge="1">
          <mxGeometry relative="1" as="geometry" />
        </mxCell>
        <mxCell id="30fCOcxRf9-i1ujDUc_0-205" value="S1-SC2-P1-F1" style="edgeLabel;html=1;align=center;verticalAlign=middle;resizable=0;points=[];" parent="30fCOcxRf9-i1ujDUc_0-200" vertex="1" connectable="0">
          <mxGeometry x="0.1461" y="-1" relative="1" as="geometry">
            <mxPoint x="5" as="offset" />
          </mxGeometry>
        </mxCell>
        <mxCell id="30fCOcxRf9-i1ujDUc_0-182" value="" style="sketch=0;pointerEvents=1;shadow=0;dashed=0;html=1;strokeColor=none;fillColor=#005F4B;labelPosition=center;verticalLabelPosition=bottom;verticalAlign=top;align=center;outlineConnect=0;shape=mxgraph.veeam2.storage;" parent="1" vertex="1">
          <mxGeometry x="39" y="198.75" width="202" height="60" as="geometry" />
        </mxCell>
        <mxCell id="30fCOcxRf9-i1ujDUc_0-185" style="edgeStyle=none;rounded=0;orthogonalLoop=1;jettySize=auto;html=1;" parent="1" source="30fCOcxRf9-i1ujDUc_0-183" target="30fCOcxRf9-i1ujDUc_0-181" edge="1">
          <mxGeometry relative="1" as="geometry" />
        </mxCell>
        <mxCell id="30fCOcxRf9-i1ujDUc_0-187" value="SAS" style="edgeLabel;html=1;align=center;verticalAlign=middle;resizable=0;points=[];" parent="30fCOcxRf9-i1ujDUc_0-185" vertex="1" connectable="0">
          <mxGeometry x="-0.0555" relative="1" as="geometry">
            <mxPoint y="1" as="offset" />
          </mxGeometry>
        </mxCell>
        <mxCell id="30fCOcxRf9-i1ujDUc_0-186" value="SAS" style="edgeStyle=none;rounded=0;orthogonalLoop=1;jettySize=auto;html=1;" parent="1" source="30fCOcxRf9-i1ujDUc_0-183" target="30fCOcxRf9-i1ujDUc_0-182" edge="1">
          <mxGeometry relative="1" as="geometry" />
        </mxCell>
        <mxCell id="30fCOcxRf9-i1ujDUc_0-183" value="" style="sketch=0;pointerEvents=1;shadow=0;dashed=0;html=1;strokeColor=none;fillColor=#005F4B;labelPosition=center;verticalLabelPosition=bottom;verticalAlign=top;align=center;outlineConnect=0;shape=mxgraph.veeam2.storage_stack;" parent="1" vertex="1">
          <mxGeometry x="-70" y="8.75" width="161" height="110" as="geometry" />
        </mxCell>
        <mxCell id="30fCOcxRf9-i1ujDUc_0-184" value="JBOD" style="text;html=1;align=center;verticalAlign=middle;resizable=0;points=[];autosize=1;strokeColor=none;fillColor=none;" parent="1" vertex="1">
          <mxGeometry x="32.5" y="-21.25" width="60" height="30" as="geometry" />
        </mxCell>
        <mxCell id="30fCOcxRf9-i1ujDUc_0-195" value="Storage-Controller-1" style="text;html=1;align=center;verticalAlign=middle;resizable=0;points=[];autosize=1;strokeColor=none;fillColor=none;" parent="1" vertex="1">
          <mxGeometry x="-229" y="168.75" width="130" height="30" as="geometry" />
        </mxCell>
        <mxCell id="30fCOcxRf9-i1ujDUc_0-196" value="Storage-Controller-2" style="text;html=1;align=center;verticalAlign=middle;resizable=0;points=[];autosize=1;strokeColor=none;fillColor=none;" parent="1" vertex="1">
          <mxGeometry x="129" y="168.75" width="130" height="30" as="geometry" />
        </mxCell>
        <mxCell id="30fCOcxRf9-i1ujDUc_0-207" value="Продуктивная система хранения" style="text;html=1;align=center;verticalAlign=middle;resizable=0;points=[];autosize=1;strokeColor=none;fillColor=none;fontSize=20;" parent="1" vertex="1">
          <mxGeometry x="-320" y="-41.25" width="340" height="40" as="geometry" />
        </mxCell>
        <mxCell id="30fCOcxRf9-i1ujDUc_0-208" value="Кластер виртуализации" style="text;html=1;align=center;verticalAlign=middle;resizable=0;points=[];autosize=1;strokeColor=none;fillColor=none;fontSize=20;" parent="1" vertex="1">
          <mxGeometry x="-309" y="770" width="250" height="40" as="geometry" />
        </mxCell>
        <mxCell id="30fCOcxRf9-i1ujDUc_0-209" value="" style="sketch=0;shadow=0;dashed=0;html=1;labelPosition=center;verticalLabelPosition=bottom;verticalAlign=top;align=center;outlineConnect=0;shape=mxgraph.veeam.3d.vm_running;fontSize=20;" parent="1" vertex="1">
          <mxGeometry x="-90" y="1110" width="56" height="46" as="geometry" />
        </mxCell>
        <mxCell id="30fCOcxRf9-i1ujDUc_0-210" value="" style="sketch=0;shadow=0;dashed=0;html=1;labelPosition=center;verticalLabelPosition=bottom;verticalAlign=top;align=center;outlineConnect=0;shape=mxgraph.veeam.3d.vm_running;fontSize=20;" parent="1" vertex="1">
          <mxGeometry x="-90" y="994" width="56" height="46" as="geometry" />
        </mxCell>
        <mxCell id="30fCOcxRf9-i1ujDUc_0-211" value="" style="sketch=0;shadow=0;dashed=0;html=1;labelPosition=center;verticalLabelPosition=bottom;verticalAlign=top;align=center;outlineConnect=0;shape=mxgraph.veeam.3d.vm_running;fontSize=20;" parent="1" vertex="1">
          <mxGeometry x="170" y="1014" width="56" height="46" as="geometry" />
        </mxCell>
        <mxCell id="30fCOcxRf9-i1ujDUc_0-212" value="" style="sketch=0;shadow=0;dashed=0;html=1;labelPosition=center;verticalLabelPosition=bottom;verticalAlign=top;align=center;outlineConnect=0;shape=mxgraph.veeam.3d.vm_running;fontSize=20;" parent="1" vertex="1">
          <mxGeometry x="191" y="1110" width="56" height="46" as="geometry" />
        </mxCell>
        <mxCell id="30fCOcxRf9-i1ujDUc_0-213" value="" style="rounded=1;whiteSpace=wrap;html=1;shadow=0;strokeColor=none;fillColor=#BAC8D3;gradientColor=none;fontSize=18;fontColor=#F08705;opacity=40;fontStyle=0;strokeWidth=3;arcSize=10;movable=1;resizable=1;rotatable=1;deletable=1;editable=1;connectable=1;noLabel=0;" parent="1" vertex="1">
          <mxGeometry x="-146" y="1093" width="465" height="80" as="geometry" />
        </mxCell>
        <mxCell id="30fCOcxRf9-i1ujDUc_0-214" value="Application-Cluster" style="text;html=1;align=center;verticalAlign=middle;resizable=0;points=[];autosize=1;strokeColor=none;fillColor=none;fontSize=20;" parent="1" vertex="1">
          <mxGeometry x="-20" y="1090" width="190" height="40" as="geometry" />
        </mxCell>
        <mxCell id="30fCOcxRf9-i1ujDUc_0-215" value="VM-1" style="text;html=1;align=center;verticalAlign=middle;resizable=0;points=[];autosize=1;strokeColor=none;fillColor=none;fontSize=12;" parent="1" vertex="1">
          <mxGeometry x="-89" y="1045" width="50" height="30" as="geometry" />
        </mxCell>
        <mxCell id="30fCOcxRf9-i1ujDUc_0-216" value="VM-3" style="text;html=1;align=center;verticalAlign=middle;resizable=0;points=[];autosize=1;strokeColor=none;fillColor=none;fontSize=12;" parent="1" vertex="1">
          <mxGeometry x="191" y="1040" width="50" height="30" as="geometry" />
        </mxCell>
        <mxCell id="F7227lhovemkw8aJHnXB-174" style="edgeStyle=none;rounded=0;orthogonalLoop=1;jettySize=auto;html=1;fontSize=12;" parent="1" source="F7227lhovemkw8aJHnXB-171" target="2BS8JYeTeqOyGn4AyfB2-174" edge="1">
          <mxGeometry relative="1" as="geometry" />
        </mxCell>
        <mxCell id="F7227lhovemkw8aJHnXB-175" style="edgeStyle=none;rounded=0;orthogonalLoop=1;jettySize=auto;html=1;fontSize=12;" parent="1" source="F7227lhovemkw8aJHnXB-171" target="2BS8JYeTeqOyGn4AyfB2-179" edge="1">
          <mxGeometry relative="1" as="geometry" />
        </mxCell>
        <mxCell id="F7227lhovemkw8aJHnXB-171" value="" style="sketch=0;pointerEvents=1;shadow=0;dashed=0;html=1;strokeColor=none;fillColor=#005F4B;labelPosition=center;verticalLabelPosition=bottom;verticalAlign=top;align=center;outlineConnect=0;shape=mxgraph.veeam2.tape_library;fontSize=12;" parent="1" vertex="1">
          <mxGeometry x="788.75" y="100" width="190" height="232.5" as="geometry" />
        </mxCell>
        <mxCell id="F7227lhovemkw8aJHnXB-173" value="Ленточная библиотека&lt;br&gt;резервное копирование" style="text;html=1;align=center;verticalAlign=middle;resizable=0;points=[];autosize=1;strokeColor=none;fillColor=none;fontSize=20;" parent="1" vertex="1">
          <mxGeometry x="758.75" y="20" width="250" height="60" as="geometry" />
        </mxCell>
        <mxCell id="PzqO3iqtHf5u_YSaCjl1-174" style="edgeStyle=none;rounded=0;orthogonalLoop=1;jettySize=auto;html=1;fontSize=12;" parent="1" source="PzqO3iqtHf5u_YSaCjl1-172" target="2BS8JYeTeqOyGn4AyfB2-174" edge="1">
          <mxGeometry relative="1" as="geometry" />
        </mxCell>
        <mxCell id="PzqO3iqtHf5u_YSaCjl1-175" style="edgeStyle=none;rounded=0;orthogonalLoop=1;jettySize=auto;html=1;fontSize=12;" parent="1" source="PzqO3iqtHf5u_YSaCjl1-172" target="2BS8JYeTeqOyGn4AyfB2-179" edge="1">
          <mxGeometry relative="1" as="geometry" />
        </mxCell>
        <mxCell id="PzqO3iqtHf5u_YSaCjl1-172" value="" style="shape=mxgraph.rack.ibm.ibm_x3650_m4;html=1;labelPosition=right;align=left;spacingLeft=15;dashed=0;shadow=0;fillColor=#ffffff;" parent="1" vertex="1">
          <mxGeometry x="1420" y="400" width="161" height="30" as="geometry" />
        </mxCell>
        <mxCell id="PzqO3iqtHf5u_YSaCjl1-173" value="Сервер резервного копирования" style="text;html=1;align=center;verticalAlign=middle;resizable=0;points=[];autosize=1;strokeColor=none;fillColor=none;" parent="1" vertex="1">
          <mxGeometry x="1421" y="450" width="210" height="30" as="geometry" />
        </mxCell>
        <mxCell id="PzqO3iqtHf5u_YSaCjl1-177" value="" style="rounded=1;whiteSpace=wrap;html=1;shadow=0;strokeColor=none;fillColor=#BAC8D3;gradientColor=none;fontSize=18;fontColor=#F08705;opacity=40;fontStyle=0;strokeWidth=3;arcSize=10;movable=1;resizable=1;rotatable=1;deletable=1;editable=1;connectable=1;noLabel=0;" parent="1" vertex="1">
          <mxGeometry x="1084" y="30" width="680" height="330" as="geometry" />
        </mxCell>
        <mxCell id="PzqO3iqtHf5u_YSaCjl1-188" style="edgeStyle=none;rounded=0;orthogonalLoop=1;jettySize=auto;html=1;fontSize=12;" parent="1" source="PzqO3iqtHf5u_YSaCjl1-178" target="2BS8JYeTeqOyGn4AyfB2-174" edge="1">
          <mxGeometry relative="1" as="geometry" />
        </mxCell>
        <mxCell id="PzqO3iqtHf5u_YSaCjl1-189" style="edgeStyle=none;rounded=0;orthogonalLoop=1;jettySize=auto;html=1;fontSize=12;" parent="1" source="PzqO3iqtHf5u_YSaCjl1-178" target="2BS8JYeTeqOyGn4AyfB2-179" edge="1">
          <mxGeometry relative="1" as="geometry" />
        </mxCell>
        <mxCell id="PzqO3iqtHf5u_YSaCjl1-178" value="" style="sketch=0;pointerEvents=1;shadow=0;dashed=0;html=1;strokeColor=none;fillColor=#005F4B;labelPosition=center;verticalLabelPosition=bottom;verticalAlign=top;align=center;outlineConnect=0;shape=mxgraph.veeam2.storage;" parent="1" vertex="1">
          <mxGeometry x="1190" y="270" width="202" height="60" as="geometry" />
        </mxCell>
        <mxCell id="PzqO3iqtHf5u_YSaCjl1-190" style="edgeStyle=none;rounded=0;orthogonalLoop=1;jettySize=auto;html=1;fontSize=12;" parent="1" source="PzqO3iqtHf5u_YSaCjl1-179" target="2BS8JYeTeqOyGn4AyfB2-174" edge="1">
          <mxGeometry relative="1" as="geometry" />
        </mxCell>
        <mxCell id="PzqO3iqtHf5u_YSaCjl1-191" style="edgeStyle=none;rounded=0;orthogonalLoop=1;jettySize=auto;html=1;fontSize=12;" parent="1" source="PzqO3iqtHf5u_YSaCjl1-179" target="2BS8JYeTeqOyGn4AyfB2-179" edge="1">
          <mxGeometry relative="1" as="geometry" />
        </mxCell>
        <mxCell id="PzqO3iqtHf5u_YSaCjl1-179" value="" style="sketch=0;pointerEvents=1;shadow=0;dashed=0;html=1;strokeColor=none;fillColor=#005F4B;labelPosition=center;verticalLabelPosition=bottom;verticalAlign=top;align=center;outlineConnect=0;shape=mxgraph.veeam2.storage;" parent="1" vertex="1">
          <mxGeometry x="1443" y="270" width="202" height="60" as="geometry" />
        </mxCell>
        <mxCell id="PzqO3iqtHf5u_YSaCjl1-180" style="edgeStyle=none;rounded=0;orthogonalLoop=1;jettySize=auto;html=1;" parent="1" source="PzqO3iqtHf5u_YSaCjl1-183" target="PzqO3iqtHf5u_YSaCjl1-178" edge="1">
          <mxGeometry relative="1" as="geometry" />
        </mxCell>
        <mxCell id="PzqO3iqtHf5u_YSaCjl1-181" value="SAS" style="edgeLabel;html=1;align=center;verticalAlign=middle;resizable=0;points=[];" parent="PzqO3iqtHf5u_YSaCjl1-180" vertex="1" connectable="0">
          <mxGeometry x="-0.0555" relative="1" as="geometry">
            <mxPoint y="1" as="offset" />
          </mxGeometry>
        </mxCell>
        <mxCell id="PzqO3iqtHf5u_YSaCjl1-182" value="SAS" style="edgeStyle=none;rounded=0;orthogonalLoop=1;jettySize=auto;html=1;" parent="1" source="PzqO3iqtHf5u_YSaCjl1-183" target="PzqO3iqtHf5u_YSaCjl1-179" edge="1">
          <mxGeometry relative="1" as="geometry" />
        </mxCell>
        <mxCell id="PzqO3iqtHf5u_YSaCjl1-183" value="" style="sketch=0;pointerEvents=1;shadow=0;dashed=0;html=1;strokeColor=none;fillColor=#005F4B;labelPosition=center;verticalLabelPosition=bottom;verticalAlign=top;align=center;outlineConnect=0;shape=mxgraph.veeam2.storage_stack;" parent="1" vertex="1">
          <mxGeometry x="1335.5" y="80" width="161" height="110" as="geometry" />
        </mxCell>
        <mxCell id="PzqO3iqtHf5u_YSaCjl1-184" value="JBOD" style="text;html=1;align=center;verticalAlign=middle;resizable=0;points=[];autosize=1;strokeColor=none;fillColor=none;" parent="1" vertex="1">
          <mxGeometry x="1436.5" y="50" width="60" height="30" as="geometry" />
        </mxCell>
        <mxCell id="PzqO3iqtHf5u_YSaCjl1-185" value="Storage-Controller-1" style="text;html=1;align=center;verticalAlign=middle;resizable=0;points=[];autosize=1;strokeColor=none;fillColor=none;" parent="1" vertex="1">
          <mxGeometry x="1175" y="240" width="130" height="30" as="geometry" />
        </mxCell>
        <mxCell id="PzqO3iqtHf5u_YSaCjl1-186" value="Storage-Controller-2" style="text;html=1;align=center;verticalAlign=middle;resizable=0;points=[];autosize=1;strokeColor=none;fillColor=none;" parent="1" vertex="1">
          <mxGeometry x="1533" y="240" width="130" height="30" as="geometry" />
        </mxCell>
        <mxCell id="PzqO3iqtHf5u_YSaCjl1-187" value="Резервная система хранения" style="text;html=1;align=center;verticalAlign=middle;resizable=0;points=[];autosize=1;strokeColor=none;fillColor=none;fontSize=20;" parent="1" vertex="1">
          <mxGeometry x="1104" y="30" width="300" height="40" as="geometry" />
        </mxCell>
        <mxCell id="zTZxvMO22btk2z1EU82G-175" style="edgeStyle=none;rounded=0;orthogonalLoop=1;jettySize=auto;html=1;" parent="1" source="zTZxvMO22btk2z1EU82G-171" target="2BS8JYeTeqOyGn4AyfB2-179" edge="1">
          <mxGeometry relative="1" as="geometry" />
        </mxCell>
        <mxCell id="zTZxvMO22btk2z1EU82G-171" value="" style="rounded=1;whiteSpace=wrap;html=1;shadow=0;strokeColor=none;fillColor=#BAC8D3;gradientColor=none;fontSize=18;fontColor=#F08705;opacity=40;fontStyle=0;strokeWidth=3;arcSize=10;movable=1;resizable=1;rotatable=1;deletable=1;editable=1;connectable=1;noLabel=0;" parent="1" vertex="1">
          <mxGeometry x="329.5" y="-21.25" width="307.5" height="328.75" as="geometry" />
        </mxCell>
        <mxCell id="zTZxvMO22btk2z1EU82G-174" style="rounded=0;orthogonalLoop=1;jettySize=auto;html=1;" parent="1" source="zTZxvMO22btk2z1EU82G-172" target="2BS8JYeTeqOyGn4AyfB2-174" edge="1">
          <mxGeometry relative="1" as="geometry" />
        </mxCell>
        <mxCell id="zTZxvMO22btk2z1EU82G-172" value="" style="sketch=0;pointerEvents=1;shadow=0;dashed=0;html=1;strokeColor=none;fillColor=#005F4B;labelPosition=center;verticalLabelPosition=bottom;verticalAlign=top;align=center;outlineConnect=0;shape=mxgraph.veeam2.tape_library;fontSize=12;" parent="1" vertex="1">
          <mxGeometry x="388.25" y="58.75" width="190" height="232.5" as="geometry" />
        </mxCell>
        <mxCell id="zTZxvMO22btk2z1EU82G-173" value="Ленточная библиотека&lt;br&gt;архивное хранение" style="text;html=1;align=center;verticalAlign=middle;resizable=0;points=[];autosize=1;strokeColor=none;fillColor=none;fontSize=20;" parent="1" vertex="1">
          <mxGeometry x="363.25" y="-21.25" width="240" height="60" as="geometry" />
        </mxCell>
        <mxCell id="yHPnFoI3MqznKNpEtGCL-173" style="edgeStyle=none;rounded=0;orthogonalLoop=1;jettySize=auto;html=1;" parent="1" source="zTZxvMO22btk2z1EU82G-176" target="2BS8JYeTeqOyGn4AyfB2-174" edge="1">
          <mxGeometry relative="1" as="geometry" />
        </mxCell>
        <mxCell id="yHPnFoI3MqznKNpEtGCL-174" style="edgeStyle=none;rounded=0;orthogonalLoop=1;jettySize=auto;html=1;" parent="1" source="zTZxvMO22btk2z1EU82G-176" target="2BS8JYeTeqOyGn4AyfB2-179" edge="1">
          <mxGeometry relative="1" as="geometry" />
        </mxCell>
        <mxCell id="zTZxvMO22btk2z1EU82G-176" value="" style="shape=mxgraph.rack.ibm.ibm_x3650_m4;html=1;labelPosition=right;align=left;spacingLeft=15;dashed=0;shadow=0;fillColor=#ffffff;" parent="1" vertex="1">
          <mxGeometry x="770" y="930" width="161" height="30" as="geometry" />
        </mxCell>
        <mxCell id="yHPnFoI3MqznKNpEtGCL-175" style="edgeStyle=none;rounded=0;orthogonalLoop=1;jettySize=auto;html=1;" parent="1" source="zTZxvMO22btk2z1EU82G-177" target="2BS8JYeTeqOyGn4AyfB2-174" edge="1">
          <mxGeometry relative="1" as="geometry" />
        </mxCell>
        <mxCell id="yHPnFoI3MqznKNpEtGCL-176" style="edgeStyle=none;rounded=0;orthogonalLoop=1;jettySize=auto;html=1;" parent="1" source="zTZxvMO22btk2z1EU82G-177" target="2BS8JYeTeqOyGn4AyfB2-179" edge="1">
          <mxGeometry relative="1" as="geometry" />
        </mxCell>
        <mxCell id="zTZxvMO22btk2z1EU82G-177" value="" style="shape=mxgraph.rack.ibm.ibm_x3650_m4;html=1;labelPosition=right;align=left;spacingLeft=15;dashed=0;shadow=0;fillColor=#ffffff;" parent="1" vertex="1">
          <mxGeometry x="978.75" y="930" width="161" height="30" as="geometry" />
        </mxCell>
        <mxCell id="yHPnFoI3MqznKNpEtGCL-177" style="edgeStyle=none;rounded=0;orthogonalLoop=1;jettySize=auto;html=1;" parent="1" source="zTZxvMO22btk2z1EU82G-178" target="2BS8JYeTeqOyGn4AyfB2-174" edge="1">
          <mxGeometry relative="1" as="geometry" />
        </mxCell>
        <mxCell id="yHPnFoI3MqznKNpEtGCL-178" style="edgeStyle=none;rounded=0;orthogonalLoop=1;jettySize=auto;html=1;" parent="1" source="zTZxvMO22btk2z1EU82G-178" target="2BS8JYeTeqOyGn4AyfB2-179" edge="1">
          <mxGeometry relative="1" as="geometry" />
        </mxCell>
        <mxCell id="zTZxvMO22btk2z1EU82G-178" value="" style="shape=mxgraph.rack.ibm.ibm_x3650_m4;html=1;labelPosition=right;align=left;spacingLeft=15;dashed=0;shadow=0;fillColor=#ffffff;" parent="1" vertex="1">
          <mxGeometry x="1320" y="930" width="161" height="30" as="geometry" />
        </mxCell>
        <mxCell id="yHPnFoI3MqznKNpEtGCL-179" style="edgeStyle=none;rounded=0;orthogonalLoop=1;jettySize=auto;html=1;" parent="1" source="zTZxvMO22btk2z1EU82G-179" target="2BS8JYeTeqOyGn4AyfB2-174" edge="1">
          <mxGeometry relative="1" as="geometry" />
        </mxCell>
        <mxCell id="yHPnFoI3MqznKNpEtGCL-180" style="edgeStyle=none;rounded=0;orthogonalLoop=1;jettySize=auto;html=1;" parent="1" source="zTZxvMO22btk2z1EU82G-179" target="2BS8JYeTeqOyGn4AyfB2-179" edge="1">
          <mxGeometry relative="1" as="geometry" />
        </mxCell>
        <mxCell id="zTZxvMO22btk2z1EU82G-179" value="" style="shape=mxgraph.rack.ibm.ibm_x3650_m4;html=1;labelPosition=right;align=left;spacingLeft=15;dashed=0;shadow=0;fillColor=#ffffff;" parent="1" vertex="1">
          <mxGeometry x="1530" y="930" width="161" height="30" as="geometry" />
        </mxCell>
        <mxCell id="Fhrh1YmYtMzLOMzCzocy-171" value="Гипервизор-1" style="text;html=1;align=center;verticalAlign=middle;resizable=0;points=[];autosize=1;strokeColor=none;fillColor=none;" parent="1" vertex="1">
          <mxGeometry x="-163" y="960" width="100" height="30" as="geometry" />
        </mxCell>
        <mxCell id="Fhrh1YmYtMzLOMzCzocy-172" value="Гипервизор-2" style="text;html=1;align=center;verticalAlign=middle;resizable=0;points=[];autosize=1;strokeColor=none;fillColor=none;" parent="1" vertex="1">
          <mxGeometry x="166" y="960" width="100" height="30" as="geometry" />
        </mxCell>
        <mxCell id="Fhrh1YmYtMzLOMzCzocy-173" value="Гипервизор-3" style="text;html=1;align=center;verticalAlign=middle;resizable=0;points=[];autosize=1;strokeColor=none;fillColor=none;" parent="1" vertex="1">
          <mxGeometry x="433.25" y="964" width="100" height="30" as="geometry" />
        </mxCell>
        <mxCell id="yHPnFoI3MqznKNpEtGCL-172" value="Кластер 1С" style="text;html=1;align=center;verticalAlign=middle;resizable=0;points=[];autosize=1;strokeColor=none;fillColor=none;fontSize=20;" parent="1" vertex="1">
          <mxGeometry x="895" y="770" width="130" height="40" as="geometry" />
        </mxCell>
        <mxCell id="yHPnFoI3MqznKNpEtGCL-181" value="Кластер МИС" style="text;html=1;align=center;verticalAlign=middle;resizable=0;points=[];autosize=1;strokeColor=none;fillColor=none;fontSize=20;" parent="1" vertex="1">
          <mxGeometry x="1441" y="770" width="150" height="40" as="geometry" />
        </mxCell>
        <mxCell id="yHPnFoI3MqznKNpEtGCL-182" value="" style="rounded=1;whiteSpace=wrap;html=1;shadow=0;strokeColor=none;fillColor=#BAC8D3;gradientColor=none;fontSize=18;fontColor=#F08705;opacity=40;fontStyle=0;strokeWidth=3;arcSize=10;movable=1;resizable=1;rotatable=1;deletable=1;editable=1;connectable=1;noLabel=0;" parent="1" vertex="1">
          <mxGeometry x="1740" y="760" width="500" height="430" as="geometry" />
        </mxCell>
        <mxCell id="yHPnFoI3MqznKNpEtGCL-186" style="edgeStyle=none;rounded=0;orthogonalLoop=1;jettySize=auto;html=1;" parent="1" source="yHPnFoI3MqznKNpEtGCL-183" target="2BS8JYeTeqOyGn4AyfB2-179" edge="1">
          <mxGeometry relative="1" as="geometry" />
        </mxCell>
        <mxCell id="yHPnFoI3MqznKNpEtGCL-187" style="edgeStyle=none;rounded=0;orthogonalLoop=1;jettySize=auto;html=1;" parent="1" source="yHPnFoI3MqznKNpEtGCL-183" target="2BS8JYeTeqOyGn4AyfB2-174" edge="1">
          <mxGeometry relative="1" as="geometry" />
        </mxCell>
        <mxCell id="yHPnFoI3MqznKNpEtGCL-183" value="" style="shape=mxgraph.rack.ibm.ibm_x3650_m4;html=1;labelPosition=right;align=left;spacingLeft=15;dashed=0;shadow=0;fillColor=#ffffff;" parent="1" vertex="1">
          <mxGeometry x="1830" y="930" width="161" height="30" as="geometry" />
        </mxCell>
        <mxCell id="yHPnFoI3MqznKNpEtGCL-188" style="edgeStyle=none;rounded=0;orthogonalLoop=1;jettySize=auto;html=1;" parent="1" source="yHPnFoI3MqznKNpEtGCL-184" target="2BS8JYeTeqOyGn4AyfB2-179" edge="1">
          <mxGeometry relative="1" as="geometry" />
        </mxCell>
        <mxCell id="yHPnFoI3MqznKNpEtGCL-189" style="edgeStyle=none;rounded=0;orthogonalLoop=1;jettySize=auto;html=1;" parent="1" source="yHPnFoI3MqznKNpEtGCL-184" target="2BS8JYeTeqOyGn4AyfB2-174" edge="1">
          <mxGeometry relative="1" as="geometry" />
        </mxCell>
        <mxCell id="yHPnFoI3MqznKNpEtGCL-184" value="" style="shape=mxgraph.rack.ibm.ibm_x3650_m4;html=1;labelPosition=right;align=left;spacingLeft=15;dashed=0;shadow=0;fillColor=#ffffff;" parent="1" vertex="1">
          <mxGeometry x="2040" y="930" width="161" height="30" as="geometry" />
        </mxCell>
        <mxCell id="yHPnFoI3MqznKNpEtGCL-185" value="Кластер Баз данных" style="text;html=1;align=center;verticalAlign=middle;resizable=0;points=[];autosize=1;strokeColor=none;fillColor=none;fontSize=20;" parent="1" vertex="1">
          <mxGeometry x="1916" y="770" width="220" height="40" as="geometry" />
        </mxCell>
        <mxCell id="oKsl3EcDswWhEAN2bmV5-171" value="" style="shape=mxgraph.rack.ibm.ibm_1754_local_console_manager;html=1;labelPosition=right;align=left;spacingLeft=15;dashed=0;shadow=0;fillColor=#ffffff;movable=1;resizable=1;rotatable=1;deletable=1;editable=1;connectable=1;" parent="1" vertex="1">
          <mxGeometry x="1850" y="680" width="161" height="15" as="geometry" />
        </mxCell>
        <mxCell id="oKsl3EcDswWhEAN2bmV5-172" value="" style="shape=mxgraph.rack.ibm.ibm_1754_local_console_manager;html=1;labelPosition=right;align=left;spacingLeft=15;dashed=0;shadow=0;fillColor=#ffffff;movable=1;resizable=1;rotatable=1;deletable=1;editable=1;connectable=1;" parent="1" vertex="1">
          <mxGeometry x="1850" y="555" width="161" height="15" as="geometry" />
        </mxCell>
        <mxCell id="u-c6fZ8ro3a70qnBmAO8-171" style="edgeStyle=none;rounded=0;orthogonalLoop=1;jettySize=auto;html=1;" parent="1" source="oKsl3EcDswWhEAN2bmV5-171" target="2BS8JYeTeqOyGn4AyfB2-179" edge="1">
          <mxGeometry relative="1" as="geometry">
            <mxPoint x="2173.5949367088615" y="901" as="sourcePoint" />
            <mxPoint x="1167.8734177215192" y="541" as="targetPoint" />
          </mxGeometry>
        </mxCell>
        <mxCell id="u-c6fZ8ro3a70qnBmAO8-172" style="edgeStyle=none;rounded=0;orthogonalLoop=1;jettySize=auto;html=1;" parent="1" source="oKsl3EcDswWhEAN2bmV5-172" edge="1">
          <mxGeometry relative="1" as="geometry">
            <mxPoint x="1920" y="630" as="sourcePoint" />
            <mxPoint x="1120" y="540" as="targetPoint" />
          </mxGeometry>
        </mxCell>
        <mxCell id="u-c6fZ8ro3a70qnBmAO8-173" style="edgeStyle=none;rounded=0;orthogonalLoop=1;jettySize=auto;html=1;exitX=0.034;exitY=0.575;exitDx=0;exitDy=0;exitPerimeter=0;" parent="1" source="oKsl3EcDswWhEAN2bmV5-172" target="2BS8JYeTeqOyGn4AyfB2-179" edge="1">
          <mxGeometry relative="1" as="geometry">
            <mxPoint x="1870.2307692307695" y="650" as="sourcePoint" />
            <mxPoint x="1147.0000000000005" y="572.807881773399" as="targetPoint" />
          </mxGeometry>
        </mxCell>
        <mxCell id="u-c6fZ8ro3a70qnBmAO8-174" style="edgeStyle=none;rounded=0;orthogonalLoop=1;jettySize=auto;html=1;exitX=0.037;exitY=1.075;exitDx=0;exitDy=0;exitPerimeter=0;" parent="1" source="oKsl3EcDswWhEAN2bmV5-171" target="2BS8JYeTeqOyGn4AyfB2-179" edge="1">
          <mxGeometry relative="1" as="geometry">
            <mxPoint x="1840" y="660" as="sourcePoint" />
            <mxPoint x="1157.0000000000005" y="582.807881773399" as="targetPoint" />
          </mxGeometry>
        </mxCell>
        <mxCell id="g7HiKCuxp7vVLNKvjdr5-171" value="" style="sketch=0;shadow=0;dashed=0;html=1;labelPosition=center;verticalLabelPosition=bottom;verticalAlign=top;align=center;outlineConnect=0;shape=mxgraph.veeam.3d.vm_running;fontSize=20;" parent="1" vertex="1">
          <mxGeometry x="273.5" y="1014" width="56" height="46" as="geometry" />
        </mxCell>
        <mxCell id="g7HiKCuxp7vVLNKvjdr5-172" value="" style="sketch=0;shadow=0;dashed=0;html=1;labelPosition=center;verticalLabelPosition=bottom;verticalAlign=top;align=center;outlineConnect=0;shape=mxgraph.veeam.3d.vm_running;fontSize=20;" parent="1" vertex="1">
          <mxGeometry x="363.25" y="1014" width="56" height="46" as="geometry" />
        </mxCell>
        <mxCell id="g7HiKCuxp7vVLNKvjdr5-173" value="" style="sketch=0;shadow=0;dashed=0;html=1;labelPosition=center;verticalLabelPosition=bottom;verticalAlign=top;align=center;outlineConnect=0;shape=mxgraph.veeam.3d.vm_running;fontSize=20;" parent="1" vertex="1">
          <mxGeometry x="477.25" y="1014" width="56" height="46" as="geometry" />
        </mxCell>
      </root>
    </mxGraphModel>
  </diagram>
  <diagram id="TeIVfc_Q7Ey6mw55to4x" name="LAN">
    <mxGraphModel dx="2856" dy="1105" grid="1" gridSize="10" guides="1" tooltips="1" connect="1" arrows="1" fold="1" page="1" pageScale="1" pageWidth="827" pageHeight="1169" math="0" shadow="0">
      <root>
        <mxCell id="0" />
        <mxCell id="1" parent="0" />
        <mxCell id="NYAGcz9PBeCmze6X147x-18" style="edgeStyle=none;rounded=0;orthogonalLoop=1;jettySize=auto;html=1;fontSize=12;" parent="1" source="_Ws1PRZHTwRr1ZwGSwP5-60" target="_Ws1PRZHTwRr1ZwGSwP5-35" edge="1">
          <mxGeometry relative="1" as="geometry" />
        </mxCell>
        <mxCell id="_Ws1PRZHTwRr1ZwGSwP5-114" value="" style="rounded=1;whiteSpace=wrap;html=1;shadow=0;strokeColor=none;fillColor=#BAC8D3;gradientColor=none;fontSize=18;fontColor=#F08705;opacity=40;fontStyle=0;strokeWidth=3;arcSize=10;movable=1;resizable=1;rotatable=1;deletable=1;editable=1;connectable=1;noLabel=0;" parent="1" vertex="1">
          <mxGeometry x="554" y="680" width="710" height="350" as="geometry" />
        </mxCell>
        <mxCell id="_Ws1PRZHTwRr1ZwGSwP5-113" value="" style="rounded=1;whiteSpace=wrap;html=1;shadow=0;strokeColor=none;fillColor=#BAC8D3;gradientColor=none;fontSize=18;fontColor=#F08705;opacity=40;fontStyle=0;strokeWidth=3;arcSize=10;movable=1;resizable=1;rotatable=1;deletable=1;editable=1;connectable=1;noLabel=0;" parent="1" vertex="1">
          <mxGeometry x="1290" y="680" width="710" height="350" as="geometry" />
        </mxCell>
        <mxCell id="_Ws1PRZHTwRr1ZwGSwP5-105" value="" style="rounded=1;whiteSpace=wrap;html=1;shadow=0;strokeColor=none;fillColor=#BAC8D3;gradientColor=none;fontSize=18;fontColor=#F08705;opacity=40;fontStyle=0;strokeWidth=3;arcSize=10;movable=1;resizable=1;rotatable=1;deletable=1;editable=1;connectable=1;noLabel=0;" parent="1" vertex="1">
          <mxGeometry x="300" y="1080" width="2010" height="810" as="geometry" />
        </mxCell>
        <mxCell id="_Ws1PRZHTwRr1ZwGSwP5-109" value="" style="rounded=1;whiteSpace=wrap;html=1;shadow=0;strokeColor=none;fillColor=#BAC8D3;gradientColor=none;fontSize=18;fontColor=#F08705;opacity=40;fontStyle=0;strokeWidth=3;arcSize=10;movable=1;resizable=1;rotatable=1;deletable=1;editable=1;connectable=1;noLabel=0;" parent="1" vertex="1">
          <mxGeometry x="1290" y="1160" width="960" height="640" as="geometry" />
        </mxCell>
        <mxCell id="_Ws1PRZHTwRr1ZwGSwP5-108" value="" style="rounded=1;whiteSpace=wrap;html=1;shadow=0;strokeColor=none;fillColor=#BAC8D3;gradientColor=none;fontSize=18;fontColor=#F08705;opacity=40;fontStyle=0;strokeWidth=3;arcSize=10;movable=1;resizable=1;rotatable=1;deletable=1;editable=1;connectable=1;noLabel=0;" parent="1" vertex="1">
          <mxGeometry x="360" y="1160" width="905" height="650" as="geometry" />
        </mxCell>
        <mxCell id="_Ws1PRZHTwRr1ZwGSwP5-95" value="" style="rounded=1;whiteSpace=wrap;html=1;shadow=0;strokeColor=none;fillColor=#BAC8D3;gradientColor=none;fontSize=18;fontColor=#F08705;opacity=40;fontStyle=0;strokeWidth=3;arcSize=10;movable=1;resizable=1;rotatable=1;deletable=1;editable=1;connectable=1;noLabel=0;" parent="1" vertex="1">
          <mxGeometry x="1930" y="1510" width="290" height="240" as="geometry" />
        </mxCell>
        <mxCell id="_Ws1PRZHTwRr1ZwGSwP5-92" value="" style="rounded=1;whiteSpace=wrap;html=1;shadow=0;strokeColor=none;fillColor=#BAC8D3;gradientColor=none;fontSize=18;fontColor=#F08705;opacity=40;fontStyle=0;strokeWidth=3;arcSize=10;movable=1;resizable=1;rotatable=1;deletable=1;editable=1;connectable=1;noLabel=0;" parent="1" vertex="1">
          <mxGeometry x="1310" y="1250" width="290" height="240" as="geometry" />
        </mxCell>
        <mxCell id="_Ws1PRZHTwRr1ZwGSwP5-86" value="" style="rounded=1;whiteSpace=wrap;html=1;shadow=0;strokeColor=none;fillColor=#BAC8D3;gradientColor=none;fontSize=18;fontColor=#F08705;opacity=40;fontStyle=0;strokeWidth=3;arcSize=10;movable=1;resizable=1;rotatable=1;deletable=1;editable=1;connectable=1;noLabel=0;" parent="1" vertex="1">
          <mxGeometry x="390" y="1510" width="290" height="240" as="geometry" />
        </mxCell>
        <mxCell id="_Ws1PRZHTwRr1ZwGSwP5-89" value="" style="rounded=1;whiteSpace=wrap;html=1;shadow=0;strokeColor=none;fillColor=#BAC8D3;gradientColor=none;fontSize=18;fontColor=#F08705;opacity=40;fontStyle=0;strokeWidth=3;arcSize=10;movable=1;resizable=1;rotatable=1;deletable=1;editable=1;connectable=1;noLabel=0;" parent="1" vertex="1">
          <mxGeometry x="950" y="1250" width="290" height="240" as="geometry" />
        </mxCell>
        <mxCell id="_Ws1PRZHTwRr1ZwGSwP5-73" value="" style="rounded=1;whiteSpace=wrap;html=1;shadow=0;strokeColor=none;fillColor=#BAC8D3;gradientColor=none;fontSize=18;fontColor=#F08705;opacity=40;fontStyle=0;strokeWidth=3;arcSize=10;movable=1;resizable=1;rotatable=1;deletable=1;editable=1;connectable=1;noLabel=0;" parent="1" vertex="1">
          <mxGeometry x="620" y="750" width="1340" height="260" as="geometry" />
        </mxCell>
        <mxCell id="_Ws1PRZHTwRr1ZwGSwP5-37" value="" style="rounded=1;whiteSpace=wrap;html=1;shadow=0;strokeColor=none;fillColor=#BAC8D3;gradientColor=none;fontSize=18;fontColor=#F08705;opacity=40;fontStyle=0;strokeWidth=3;arcSize=10;movable=1;resizable=1;rotatable=1;deletable=1;editable=1;connectable=1;noLabel=0;" parent="1" vertex="1">
          <mxGeometry x="200" y="350" width="830" height="250" as="geometry" />
        </mxCell>
        <mxCell id="_Ws1PRZHTwRr1ZwGSwP5-1" value="" style="rounded=1;whiteSpace=wrap;html=1;shadow=0;strokeColor=none;fillColor=#BAC8D3;gradientColor=none;fontSize=18;fontColor=#F08705;opacity=40;fontStyle=0;strokeWidth=3;arcSize=10;movable=1;resizable=1;rotatable=1;deletable=1;editable=1;connectable=1;noLabel=0;" parent="1" vertex="1">
          <mxGeometry x="-810" y="760" width="1275" height="280" as="geometry" />
        </mxCell>
        <mxCell id="An2YpCVsQSpFkCYw0kad-1" value="" style="rounded=1;whiteSpace=wrap;html=1;shadow=0;strokeColor=none;fillColor=#BAC8D3;gradientColor=none;fontSize=18;fontColor=#F08705;opacity=40;fontStyle=0;strokeWidth=3;arcSize=10;movable=1;resizable=1;rotatable=1;deletable=1;editable=1;connectable=1;noLabel=0;" parent="1" vertex="1">
          <mxGeometry x="270" y="100" width="720" height="180" as="geometry" />
        </mxCell>
        <mxCell id="7qhCBbW0Uv8y7nbfz4cH-3" style="edgeStyle=none;rounded=0;orthogonalLoop=1;jettySize=auto;html=1;fontSize=12;shape=link;startArrow=none;" parent="1" source="7qhCBbW0Uv8y7nbfz4cH-4" target="7qhCBbW0Uv8y7nbfz4cH-2" edge="1">
          <mxGeometry relative="1" as="geometry" />
        </mxCell>
        <mxCell id="7qhCBbW0Uv8y7nbfz4cH-1" value="" style="sketch=0;pointerEvents=1;shadow=0;dashed=0;html=1;strokeColor=none;fillColor=#005F4B;labelPosition=center;verticalLabelPosition=bottom;verticalAlign=top;align=center;outlineConnect=0;shape=mxgraph.veeam2.physical_switch;" parent="1" vertex="1">
          <mxGeometry x="314" y="180" width="240" height="40" as="geometry" />
        </mxCell>
        <mxCell id="7qhCBbW0Uv8y7nbfz4cH-2" value="" style="sketch=0;pointerEvents=1;shadow=0;dashed=0;html=1;strokeColor=none;fillColor=#005F4B;labelPosition=center;verticalLabelPosition=bottom;verticalAlign=top;align=center;outlineConnect=0;shape=mxgraph.veeam2.physical_switch;" parent="1" vertex="1">
          <mxGeometry x="690" y="180" width="240" height="40" as="geometry" />
        </mxCell>
        <mxCell id="7qhCBbW0Uv8y7nbfz4cH-5" value="" style="edgeStyle=none;rounded=0;orthogonalLoop=1;jettySize=auto;html=1;fontSize=12;shape=link;endArrow=none;" parent="1" source="7qhCBbW0Uv8y7nbfz4cH-1" target="7qhCBbW0Uv8y7nbfz4cH-4" edge="1">
          <mxGeometry relative="1" as="geometry">
            <mxPoint x="554" y="200" as="sourcePoint" />
            <mxPoint x="690" y="200" as="targetPoint" />
          </mxGeometry>
        </mxCell>
        <mxCell id="7qhCBbW0Uv8y7nbfz4cH-4" value="" style="ellipse;whiteSpace=wrap;html=1;fontSize=12;" parent="1" vertex="1">
          <mxGeometry x="620" y="180" width="10" height="40" as="geometry" />
        </mxCell>
        <mxCell id="7qhCBbW0Uv8y7nbfz4cH-6" value="MLAG peer-link" style="text;html=1;align=center;verticalAlign=middle;resizable=0;points=[];autosize=1;strokeColor=none;fillColor=none;fontSize=12;" parent="1" vertex="1">
          <mxGeometry x="570" y="130" width="110" height="30" as="geometry" />
        </mxCell>
        <mxCell id="7qhCBbW0Uv8y7nbfz4cH-7" value="CoreSwitch-1" style="text;html=1;align=center;verticalAlign=middle;resizable=0;points=[];autosize=1;strokeColor=none;fillColor=none;fontSize=12;" parent="1" vertex="1">
          <mxGeometry x="280" y="145" width="100" height="30" as="geometry" />
        </mxCell>
        <mxCell id="7qhCBbW0Uv8y7nbfz4cH-8" value="CoreSwitch-2" style="text;html=1;align=center;verticalAlign=middle;resizable=0;points=[];autosize=1;strokeColor=none;fillColor=none;fontSize=12;" parent="1" vertex="1">
          <mxGeometry x="870" y="140" width="100" height="30" as="geometry" />
        </mxCell>
        <mxCell id="FR2ZW4PXEWxjrlC486cW-1" value="Ядро сети" style="text;html=1;align=center;verticalAlign=middle;resizable=0;points=[];autosize=1;strokeColor=none;fillColor=none;fontSize=20;" parent="1" vertex="1">
          <mxGeometry x="305" y="100" width="120" height="40" as="geometry" />
        </mxCell>
        <mxCell id="_Ws1PRZHTwRr1ZwGSwP5-50" style="edgeStyle=none;rounded=0;orthogonalLoop=1;jettySize=auto;html=1;fontSize=12;" parent="1" source="_Ws1PRZHTwRr1ZwGSwP5-4" target="_Ws1PRZHTwRr1ZwGSwP5-34" edge="1">
          <mxGeometry relative="1" as="geometry" />
        </mxCell>
        <mxCell id="_Ws1PRZHTwRr1ZwGSwP5-51" style="edgeStyle=none;rounded=0;orthogonalLoop=1;jettySize=auto;html=1;fontSize=12;" parent="1" source="_Ws1PRZHTwRr1ZwGSwP5-4" target="_Ws1PRZHTwRr1ZwGSwP5-35" edge="1">
          <mxGeometry relative="1" as="geometry" />
        </mxCell>
        <mxCell id="_Ws1PRZHTwRr1ZwGSwP5-4" value="" style="shape=mxgraph.rack.ibm.ibm_x3650_m4;html=1;labelPosition=right;align=left;spacingLeft=15;dashed=0;shadow=0;fillColor=#ffffff;" parent="1" vertex="1">
          <mxGeometry x="-620" y="930" width="161" height="30" as="geometry" />
        </mxCell>
        <mxCell id="_Ws1PRZHTwRr1ZwGSwP5-52" style="edgeStyle=none;rounded=0;orthogonalLoop=1;jettySize=auto;html=1;fontSize=12;" parent="1" source="_Ws1PRZHTwRr1ZwGSwP5-7" target="_Ws1PRZHTwRr1ZwGSwP5-34" edge="1">
          <mxGeometry relative="1" as="geometry" />
        </mxCell>
        <mxCell id="_Ws1PRZHTwRr1ZwGSwP5-53" style="edgeStyle=none;rounded=0;orthogonalLoop=1;jettySize=auto;html=1;fontSize=12;" parent="1" source="_Ws1PRZHTwRr1ZwGSwP5-7" target="_Ws1PRZHTwRr1ZwGSwP5-35" edge="1">
          <mxGeometry relative="1" as="geometry" />
        </mxCell>
        <mxCell id="_Ws1PRZHTwRr1ZwGSwP5-7" value="" style="shape=mxgraph.rack.ibm.ibm_x3650_m4;html=1;labelPosition=right;align=left;spacingLeft=15;dashed=0;shadow=0;fillColor=#ffffff;" parent="1" vertex="1">
          <mxGeometry x="-254" y="930" width="161" height="30" as="geometry" />
        </mxCell>
        <mxCell id="_Ws1PRZHTwRr1ZwGSwP5-54" style="edgeStyle=none;rounded=0;orthogonalLoop=1;jettySize=auto;html=1;fontSize=12;" parent="1" source="_Ws1PRZHTwRr1ZwGSwP5-10" target="_Ws1PRZHTwRr1ZwGSwP5-34" edge="1">
          <mxGeometry relative="1" as="geometry" />
        </mxCell>
        <mxCell id="_Ws1PRZHTwRr1ZwGSwP5-55" style="edgeStyle=none;rounded=0;orthogonalLoop=1;jettySize=auto;html=1;fontSize=12;" parent="1" source="_Ws1PRZHTwRr1ZwGSwP5-10" target="_Ws1PRZHTwRr1ZwGSwP5-35" edge="1">
          <mxGeometry relative="1" as="geometry" />
        </mxCell>
        <mxCell id="_Ws1PRZHTwRr1ZwGSwP5-10" value="" style="shape=mxgraph.rack.ibm.ibm_x3650_m4;html=1;labelPosition=right;align=left;spacingLeft=15;dashed=0;shadow=0;fillColor=#ffffff;" parent="1" vertex="1">
          <mxGeometry x="102" y="930" width="161" height="30" as="geometry" />
        </mxCell>
        <mxCell id="_Ws1PRZHTwRr1ZwGSwP5-11" value="Гипервизор-1" style="text;html=1;align=center;verticalAlign=middle;resizable=0;points=[];autosize=1;strokeColor=none;fillColor=none;" parent="1" vertex="1">
          <mxGeometry x="-589.5" y="960" width="100" height="30" as="geometry" />
        </mxCell>
        <mxCell id="_Ws1PRZHTwRr1ZwGSwP5-12" value="Гипервизор-2" style="text;html=1;align=center;verticalAlign=middle;resizable=0;points=[];autosize=1;strokeColor=none;fillColor=none;" parent="1" vertex="1">
          <mxGeometry x="-223.5" y="960" width="100" height="30" as="geometry" />
        </mxCell>
        <mxCell id="_Ws1PRZHTwRr1ZwGSwP5-13" value="Гипервизор-3" style="text;html=1;align=center;verticalAlign=middle;resizable=0;points=[];autosize=1;strokeColor=none;fillColor=none;" parent="1" vertex="1">
          <mxGeometry x="132.5" y="960" width="100" height="30" as="geometry" />
        </mxCell>
        <mxCell id="_Ws1PRZHTwRr1ZwGSwP5-14" value="Кластер Серверов" style="text;html=1;align=center;verticalAlign=middle;resizable=0;points=[];autosize=1;strokeColor=none;fillColor=none;fontSize=20;" parent="1" vertex="1">
          <mxGeometry x="-761" y="790" width="200" height="40" as="geometry" />
        </mxCell>
        <mxCell id="_Ws1PRZHTwRr1ZwGSwP5-39" style="edgeStyle=none;rounded=0;orthogonalLoop=1;jettySize=auto;html=1;fontSize=12;" parent="1" source="_Ws1PRZHTwRr1ZwGSwP5-34" target="7qhCBbW0Uv8y7nbfz4cH-1" edge="1">
          <mxGeometry relative="1" as="geometry" />
        </mxCell>
        <mxCell id="_Ws1PRZHTwRr1ZwGSwP5-40" style="edgeStyle=none;rounded=0;orthogonalLoop=1;jettySize=auto;html=1;fontSize=12;" parent="1" source="_Ws1PRZHTwRr1ZwGSwP5-34" target="7qhCBbW0Uv8y7nbfz4cH-2" edge="1">
          <mxGeometry relative="1" as="geometry" />
        </mxCell>
        <mxCell id="_Ws1PRZHTwRr1ZwGSwP5-44" style="edgeStyle=none;rounded=0;orthogonalLoop=1;jettySize=auto;html=1;fontSize=12;shape=link;startArrow=none;" parent="1" source="_Ws1PRZHTwRr1ZwGSwP5-45" target="_Ws1PRZHTwRr1ZwGSwP5-35" edge="1">
          <mxGeometry relative="1" as="geometry" />
        </mxCell>
        <mxCell id="_Ws1PRZHTwRr1ZwGSwP5-34" value="" style="sketch=0;pointerEvents=1;shadow=0;dashed=0;html=1;strokeColor=none;fillColor=#005F4B;labelPosition=center;verticalLabelPosition=bottom;verticalAlign=top;align=center;outlineConnect=0;shape=mxgraph.veeam2.physical_switch;" parent="1" vertex="1">
          <mxGeometry x="270" y="470" width="240" height="40" as="geometry" />
        </mxCell>
        <mxCell id="_Ws1PRZHTwRr1ZwGSwP5-41" style="edgeStyle=none;rounded=0;orthogonalLoop=1;jettySize=auto;html=1;fontSize=12;" parent="1" source="_Ws1PRZHTwRr1ZwGSwP5-35" target="7qhCBbW0Uv8y7nbfz4cH-1" edge="1">
          <mxGeometry relative="1" as="geometry" />
        </mxCell>
        <mxCell id="_Ws1PRZHTwRr1ZwGSwP5-42" style="edgeStyle=none;rounded=0;orthogonalLoop=1;jettySize=auto;html=1;fontSize=12;" parent="1" source="_Ws1PRZHTwRr1ZwGSwP5-35" target="7qhCBbW0Uv8y7nbfz4cH-2" edge="1">
          <mxGeometry relative="1" as="geometry" />
        </mxCell>
        <mxCell id="_Ws1PRZHTwRr1ZwGSwP5-35" value="" style="sketch=0;pointerEvents=1;shadow=0;dashed=0;html=1;strokeColor=none;fillColor=#005F4B;labelPosition=center;verticalLabelPosition=bottom;verticalAlign=top;align=center;outlineConnect=0;shape=mxgraph.veeam2.physical_switch;" parent="1" vertex="1">
          <mxGeometry x="730" y="470" width="240" height="40" as="geometry" />
        </mxCell>
        <mxCell id="_Ws1PRZHTwRr1ZwGSwP5-36" value="100GX4" style="text;html=1;align=center;verticalAlign=middle;resizable=0;points=[];autosize=1;strokeColor=none;fillColor=none;fontSize=12;" parent="1" vertex="1">
          <mxGeometry x="590" y="220" width="70" height="30" as="geometry" />
        </mxCell>
        <mxCell id="_Ws1PRZHTwRr1ZwGSwP5-38" value="Уровень распределения" style="text;html=1;align=center;verticalAlign=middle;resizable=0;points=[];autosize=1;strokeColor=none;fillColor=none;fontSize=20;" parent="1" vertex="1">
          <mxGeometry x="200" y="350" width="250" height="40" as="geometry" />
        </mxCell>
        <mxCell id="_Ws1PRZHTwRr1ZwGSwP5-43" value="MLAG peer-link" style="text;html=1;align=center;verticalAlign=middle;resizable=0;points=[];autosize=1;strokeColor=none;fillColor=none;fontSize=12;" parent="1" vertex="1">
          <mxGeometry x="575" y="430" width="110" height="30" as="geometry" />
        </mxCell>
        <mxCell id="_Ws1PRZHTwRr1ZwGSwP5-46" value="" style="edgeStyle=none;rounded=0;orthogonalLoop=1;jettySize=auto;html=1;fontSize=12;shape=link;endArrow=none;" parent="1" source="_Ws1PRZHTwRr1ZwGSwP5-34" target="_Ws1PRZHTwRr1ZwGSwP5-45" edge="1">
          <mxGeometry relative="1" as="geometry">
            <mxPoint x="510" y="490" as="sourcePoint" />
            <mxPoint x="730" y="490" as="targetPoint" />
          </mxGeometry>
        </mxCell>
        <mxCell id="_Ws1PRZHTwRr1ZwGSwP5-45" value="" style="ellipse;whiteSpace=wrap;html=1;fontSize=12;" parent="1" vertex="1">
          <mxGeometry x="620" y="470" width="10" height="40" as="geometry" />
        </mxCell>
        <mxCell id="_Ws1PRZHTwRr1ZwGSwP5-47" value="100GX4" style="text;html=1;align=center;verticalAlign=middle;resizable=0;points=[];autosize=1;strokeColor=none;fillColor=none;fontSize=12;" parent="1" vertex="1">
          <mxGeometry x="595" y="520" width="70" height="30" as="geometry" />
        </mxCell>
        <mxCell id="_Ws1PRZHTwRr1ZwGSwP5-49" value="MLAG" style="ellipse;whiteSpace=wrap;html=1;fontSize=12;fillColor=none;strokeColor=#FF961F;" parent="1" vertex="1">
          <mxGeometry x="327" y="290" width="606" height="30" as="geometry" />
        </mxCell>
        <mxCell id="_Ws1PRZHTwRr1ZwGSwP5-61" style="edgeStyle=none;rounded=0;orthogonalLoop=1;jettySize=auto;html=1;fontSize=12;shape=link;" parent="1" source="_Ws1PRZHTwRr1ZwGSwP5-57" target="_Ws1PRZHTwRr1ZwGSwP5-58" edge="1">
          <mxGeometry relative="1" as="geometry" />
        </mxCell>
        <mxCell id="_Ws1PRZHTwRr1ZwGSwP5-63" style="edgeStyle=none;rounded=0;orthogonalLoop=1;jettySize=auto;html=1;fontSize=12;startArrow=none;" parent="1" source="NYAGcz9PBeCmze6X147x-14" target="_Ws1PRZHTwRr1ZwGSwP5-34" edge="1">
          <mxGeometry relative="1" as="geometry" />
        </mxCell>
        <mxCell id="_Ws1PRZHTwRr1ZwGSwP5-64" style="edgeStyle=none;rounded=0;orthogonalLoop=1;jettySize=auto;html=1;fontSize=12;" parent="1" source="_Ws1PRZHTwRr1ZwGSwP5-57" target="_Ws1PRZHTwRr1ZwGSwP5-35" edge="1">
          <mxGeometry relative="1" as="geometry" />
        </mxCell>
        <mxCell id="_Ws1PRZHTwRr1ZwGSwP5-57" value="" style="sketch=0;pointerEvents=1;shadow=0;dashed=0;html=1;strokeColor=none;fillColor=#005F4B;labelPosition=center;verticalLabelPosition=bottom;verticalAlign=top;align=center;outlineConnect=0;shape=mxgraph.veeam2.physical_switch;" parent="1" vertex="1">
          <mxGeometry x="640" y="880" width="240" height="40" as="geometry" />
        </mxCell>
        <mxCell id="_Ws1PRZHTwRr1ZwGSwP5-65" style="edgeStyle=none;rounded=0;orthogonalLoop=1;jettySize=auto;html=1;fontSize=12;startArrow=none;" parent="1" source="_Ws1PRZHTwRr1ZwGSwP5-117" target="_Ws1PRZHTwRr1ZwGSwP5-34" edge="1">
          <mxGeometry relative="1" as="geometry" />
        </mxCell>
        <mxCell id="_Ws1PRZHTwRr1ZwGSwP5-66" style="edgeStyle=none;rounded=0;orthogonalLoop=1;jettySize=auto;html=1;fontSize=12;startArrow=none;" parent="1" source="NYAGcz9PBeCmze6X147x-13" target="_Ws1PRZHTwRr1ZwGSwP5-35" edge="1">
          <mxGeometry relative="1" as="geometry" />
        </mxCell>
        <mxCell id="_Ws1PRZHTwRr1ZwGSwP5-58" value="" style="sketch=0;pointerEvents=1;shadow=0;dashed=0;html=1;strokeColor=none;fillColor=#005F4B;labelPosition=center;verticalLabelPosition=bottom;verticalAlign=top;align=center;outlineConnect=0;shape=mxgraph.veeam2.physical_switch;" parent="1" vertex="1">
          <mxGeometry x="970" y="880" width="240" height="40" as="geometry" />
        </mxCell>
        <mxCell id="_Ws1PRZHTwRr1ZwGSwP5-69" style="edgeStyle=none;rounded=0;orthogonalLoop=1;jettySize=auto;html=1;fontSize=12;" parent="1" source="_Ws1PRZHTwRr1ZwGSwP5-59" target="_Ws1PRZHTwRr1ZwGSwP5-34" edge="1">
          <mxGeometry relative="1" as="geometry" />
        </mxCell>
        <mxCell id="_Ws1PRZHTwRr1ZwGSwP5-70" style="edgeStyle=none;rounded=0;orthogonalLoop=1;jettySize=auto;html=1;fontSize=12;" parent="1" source="_Ws1PRZHTwRr1ZwGSwP5-59" target="_Ws1PRZHTwRr1ZwGSwP5-35" edge="1">
          <mxGeometry relative="1" as="geometry" />
        </mxCell>
        <mxCell id="_Ws1PRZHTwRr1ZwGSwP5-59" value="" style="sketch=0;pointerEvents=1;shadow=0;dashed=0;html=1;strokeColor=none;fillColor=#005F4B;labelPosition=center;verticalLabelPosition=bottom;verticalAlign=top;align=center;outlineConnect=0;shape=mxgraph.veeam2.physical_switch;" parent="1" vertex="1">
          <mxGeometry x="1680" y="880" width="240" height="40" as="geometry" />
        </mxCell>
        <mxCell id="_Ws1PRZHTwRr1ZwGSwP5-62" style="edgeStyle=none;shape=link;rounded=0;orthogonalLoop=1;jettySize=auto;html=1;fontSize=12;" parent="1" source="_Ws1PRZHTwRr1ZwGSwP5-60" target="_Ws1PRZHTwRr1ZwGSwP5-59" edge="1">
          <mxGeometry relative="1" as="geometry" />
        </mxCell>
        <mxCell id="_Ws1PRZHTwRr1ZwGSwP5-67" style="edgeStyle=none;rounded=0;orthogonalLoop=1;jettySize=auto;html=1;fontSize=12;" parent="1" source="_Ws1PRZHTwRr1ZwGSwP5-60" target="_Ws1PRZHTwRr1ZwGSwP5-34" edge="1">
          <mxGeometry relative="1" as="geometry" />
        </mxCell>
        <mxCell id="_Ws1PRZHTwRr1ZwGSwP5-60" value="" style="sketch=0;pointerEvents=1;shadow=0;dashed=0;html=1;strokeColor=none;fillColor=#005F4B;labelPosition=center;verticalLabelPosition=bottom;verticalAlign=top;align=center;outlineConnect=0;shape=mxgraph.veeam2.physical_switch;" parent="1" vertex="1">
          <mxGeometry x="1330" y="880" width="240" height="40" as="geometry" />
        </mxCell>
        <mxCell id="_Ws1PRZHTwRr1ZwGSwP5-71" value="LACP" style="ellipse;whiteSpace=wrap;html=1;fontSize=12;fillColor=none;strokeColor=#4326FF;" parent="1" vertex="1">
          <mxGeometry x="620" y="780" width="475" height="30" as="geometry" />
        </mxCell>
        <mxCell id="_Ws1PRZHTwRr1ZwGSwP5-72" value="LACP" style="ellipse;whiteSpace=wrap;html=1;fontSize=12;fillColor=none;strokeColor=#4326FF;" parent="1" vertex="1">
          <mxGeometry x="1140" y="780" width="475" height="30" as="geometry" />
        </mxCell>
        <mxCell id="_Ws1PRZHTwRr1ZwGSwP5-74" value="Уровень доступа" style="text;html=1;align=center;verticalAlign=middle;resizable=0;points=[];autosize=1;strokeColor=none;fillColor=none;fontSize=20;" parent="1" vertex="1">
          <mxGeometry x="1755" y="760" width="180" height="40" as="geometry" />
        </mxCell>
        <mxCell id="_Ws1PRZHTwRr1ZwGSwP5-75" value="Stack-1" style="text;html=1;align=center;verticalAlign=middle;resizable=0;points=[];autosize=1;strokeColor=none;fillColor=none;" parent="1" vertex="1">
          <mxGeometry x="895" y="850" width="60" height="30" as="geometry" />
        </mxCell>
        <mxCell id="_Ws1PRZHTwRr1ZwGSwP5-76" value="Stack-2" style="text;html=1;align=center;verticalAlign=middle;resizable=0;points=[];autosize=1;strokeColor=none;fillColor=none;" parent="1" vertex="1">
          <mxGeometry x="1590" y="850" width="60" height="30" as="geometry" />
        </mxCell>
        <mxCell id="_Ws1PRZHTwRr1ZwGSwP5-84" style="edgeStyle=none;rounded=0;orthogonalLoop=1;jettySize=auto;html=1;fontSize=12;" parent="1" source="_Ws1PRZHTwRr1ZwGSwP5-81" target="_Ws1PRZHTwRr1ZwGSwP5-57" edge="1">
          <mxGeometry relative="1" as="geometry">
            <mxPoint x="702.8861788617887" y="1185" as="targetPoint" />
          </mxGeometry>
        </mxCell>
        <mxCell id="_Ws1PRZHTwRr1ZwGSwP5-81" value="" style="shape=mxgraph.cisco.modems_and_phones.ip_phone;sketch=0;html=1;pointerEvents=1;dashed=0;fillColor=#036897;strokeColor=#ffffff;strokeWidth=2;verticalLabelPosition=bottom;verticalAlign=top;align=center;outlineConnect=0;fontSize=12;" parent="1" vertex="1">
          <mxGeometry x="420" y="1578" width="90" height="50" as="geometry" />
        </mxCell>
        <mxCell id="_Ws1PRZHTwRr1ZwGSwP5-85" style="edgeStyle=none;rounded=0;orthogonalLoop=1;jettySize=auto;html=1;fontSize=12;" parent="1" source="_Ws1PRZHTwRr1ZwGSwP5-82" target="_Ws1PRZHTwRr1ZwGSwP5-57" edge="1">
          <mxGeometry relative="1" as="geometry" />
        </mxCell>
        <mxCell id="_Ws1PRZHTwRr1ZwGSwP5-82" value="" style="shape=mxgraph.cisco.misc.pc_software;sketch=0;html=1;pointerEvents=1;dashed=0;fillColor=#036897;strokeColor=#ffffff;strokeWidth=2;verticalLabelPosition=bottom;verticalAlign=top;align=center;outlineConnect=0;fontSize=12;" parent="1" vertex="1">
          <mxGeometry x="540" y="1560" width="91" height="86" as="geometry" />
        </mxCell>
        <mxCell id="_Ws1PRZHTwRr1ZwGSwP5-96" style="edgeStyle=none;rounded=0;orthogonalLoop=1;jettySize=auto;html=1;fontSize=12;" parent="1" source="_Ws1PRZHTwRr1ZwGSwP5-87" target="_Ws1PRZHTwRr1ZwGSwP5-58" edge="1">
          <mxGeometry relative="1" as="geometry" />
        </mxCell>
        <mxCell id="_Ws1PRZHTwRr1ZwGSwP5-87" value="" style="shape=mxgraph.cisco.modems_and_phones.ip_phone;sketch=0;html=1;pointerEvents=1;dashed=0;fillColor=#036897;strokeColor=#ffffff;strokeWidth=2;verticalLabelPosition=bottom;verticalAlign=top;align=center;outlineConnect=0;fontSize=12;" parent="1" vertex="1">
          <mxGeometry x="980" y="1318" width="90" height="50" as="geometry" />
        </mxCell>
        <mxCell id="_Ws1PRZHTwRr1ZwGSwP5-97" style="edgeStyle=none;rounded=0;orthogonalLoop=1;jettySize=auto;html=1;fontSize=12;" parent="1" source="_Ws1PRZHTwRr1ZwGSwP5-88" target="_Ws1PRZHTwRr1ZwGSwP5-58" edge="1">
          <mxGeometry relative="1" as="geometry" />
        </mxCell>
        <mxCell id="_Ws1PRZHTwRr1ZwGSwP5-88" value="" style="shape=mxgraph.cisco.misc.pc_software;sketch=0;html=1;pointerEvents=1;dashed=0;fillColor=#036897;strokeColor=#ffffff;strokeWidth=2;verticalLabelPosition=bottom;verticalAlign=top;align=center;outlineConnect=0;fontSize=12;" parent="1" vertex="1">
          <mxGeometry x="1100" y="1300" width="91" height="86" as="geometry" />
        </mxCell>
        <mxCell id="_Ws1PRZHTwRr1ZwGSwP5-98" style="edgeStyle=none;rounded=0;orthogonalLoop=1;jettySize=auto;html=1;fontSize=12;" parent="1" source="_Ws1PRZHTwRr1ZwGSwP5-90" target="_Ws1PRZHTwRr1ZwGSwP5-60" edge="1">
          <mxGeometry relative="1" as="geometry" />
        </mxCell>
        <mxCell id="_Ws1PRZHTwRr1ZwGSwP5-90" value="" style="shape=mxgraph.cisco.modems_and_phones.ip_phone;sketch=0;html=1;pointerEvents=1;dashed=0;fillColor=#036897;strokeColor=#ffffff;strokeWidth=2;verticalLabelPosition=bottom;verticalAlign=top;align=center;outlineConnect=0;fontSize=12;" parent="1" vertex="1">
          <mxGeometry x="1340" y="1318" width="90" height="50" as="geometry" />
        </mxCell>
        <mxCell id="_Ws1PRZHTwRr1ZwGSwP5-99" style="edgeStyle=none;rounded=0;orthogonalLoop=1;jettySize=auto;html=1;fontSize=12;" parent="1" source="_Ws1PRZHTwRr1ZwGSwP5-91" target="_Ws1PRZHTwRr1ZwGSwP5-60" edge="1">
          <mxGeometry relative="1" as="geometry" />
        </mxCell>
        <mxCell id="_Ws1PRZHTwRr1ZwGSwP5-91" value="" style="shape=mxgraph.cisco.misc.pc_software;sketch=0;html=1;pointerEvents=1;dashed=0;fillColor=#036897;strokeColor=#ffffff;strokeWidth=2;verticalLabelPosition=bottom;verticalAlign=top;align=center;outlineConnect=0;fontSize=12;" parent="1" vertex="1">
          <mxGeometry x="1460" y="1300" width="91" height="86" as="geometry" />
        </mxCell>
        <mxCell id="_Ws1PRZHTwRr1ZwGSwP5-100" style="edgeStyle=none;rounded=0;orthogonalLoop=1;jettySize=auto;html=1;fontSize=12;" parent="1" source="_Ws1PRZHTwRr1ZwGSwP5-93" target="_Ws1PRZHTwRr1ZwGSwP5-59" edge="1">
          <mxGeometry relative="1" as="geometry" />
        </mxCell>
        <mxCell id="_Ws1PRZHTwRr1ZwGSwP5-93" value="" style="shape=mxgraph.cisco.modems_and_phones.ip_phone;sketch=0;html=1;pointerEvents=1;dashed=0;fillColor=#036897;strokeColor=#ffffff;strokeWidth=2;verticalLabelPosition=bottom;verticalAlign=top;align=center;outlineConnect=0;fontSize=12;" parent="1" vertex="1">
          <mxGeometry x="1960" y="1578" width="90" height="50" as="geometry" />
        </mxCell>
        <mxCell id="_Ws1PRZHTwRr1ZwGSwP5-101" style="edgeStyle=none;rounded=0;orthogonalLoop=1;jettySize=auto;html=1;fontSize=12;" parent="1" source="_Ws1PRZHTwRr1ZwGSwP5-94" target="_Ws1PRZHTwRr1ZwGSwP5-59" edge="1">
          <mxGeometry relative="1" as="geometry" />
        </mxCell>
        <mxCell id="_Ws1PRZHTwRr1ZwGSwP5-94" value="" style="shape=mxgraph.cisco.misc.pc_software;sketch=0;html=1;pointerEvents=1;dashed=0;fillColor=#036897;strokeColor=#ffffff;strokeWidth=2;verticalLabelPosition=bottom;verticalAlign=top;align=center;outlineConnect=0;fontSize=12;" parent="1" vertex="1">
          <mxGeometry x="2080" y="1560" width="91" height="86" as="geometry" />
        </mxCell>
        <mxCell id="_Ws1PRZHTwRr1ZwGSwP5-102" value="LACP" style="ellipse;whiteSpace=wrap;html=1;fontSize=12;fillColor=none;strokeColor=#4326FF;" parent="1" vertex="1">
          <mxGeometry x="-430" y="830" width="260" height="30" as="geometry" />
        </mxCell>
        <mxCell id="_Ws1PRZHTwRr1ZwGSwP5-103" value="LACP" style="ellipse;whiteSpace=wrap;html=1;fontSize=12;fillColor=none;strokeColor=#4326FF;" parent="1" vertex="1">
          <mxGeometry x="-138.5" y="830" width="260" height="30" as="geometry" />
        </mxCell>
        <mxCell id="_Ws1PRZHTwRr1ZwGSwP5-104" value="LACP" style="ellipse;whiteSpace=wrap;html=1;fontSize=12;fillColor=none;strokeColor=#4326FF;" parent="1" vertex="1">
          <mxGeometry x="140" y="830" width="260" height="30" as="geometry" />
        </mxCell>
        <mxCell id="_Ws1PRZHTwRr1ZwGSwP5-110" value="Сеть для конечных устройств" style="text;html=1;align=center;verticalAlign=middle;resizable=0;points=[];autosize=1;strokeColor=none;fillColor=none;fontSize=20;" parent="1" vertex="1">
          <mxGeometry x="1095" y="1100" width="310" height="40" as="geometry" />
        </mxCell>
        <mxCell id="_Ws1PRZHTwRr1ZwGSwP5-111" value="Этаж 1" style="text;html=1;align=center;verticalAlign=middle;resizable=0;points=[];autosize=1;strokeColor=none;fillColor=none;fontSize=20;" parent="1" vertex="1">
          <mxGeometry x="855" y="1170" width="90" height="40" as="geometry" />
        </mxCell>
        <mxCell id="_Ws1PRZHTwRr1ZwGSwP5-112" value="Этаж 2" style="text;html=1;align=center;verticalAlign=middle;resizable=0;points=[];autosize=1;strokeColor=none;fillColor=none;fontSize=20;" parent="1" vertex="1">
          <mxGeometry x="1590" y="1160" width="90" height="40" as="geometry" />
        </mxCell>
        <mxCell id="_Ws1PRZHTwRr1ZwGSwP5-116" value="Коммутационный узел 2" style="text;html=1;align=center;verticalAlign=middle;resizable=0;points=[];autosize=1;strokeColor=none;fillColor=none;fontSize=20;" parent="1" vertex="1">
          <mxGeometry x="1735" y="680" width="250" height="40" as="geometry" />
        </mxCell>
        <mxCell id="_Ws1PRZHTwRr1ZwGSwP5-118" value="" style="edgeStyle=none;rounded=0;orthogonalLoop=1;jettySize=auto;html=1;fontSize=12;endArrow=none;" parent="1" source="_Ws1PRZHTwRr1ZwGSwP5-58" target="_Ws1PRZHTwRr1ZwGSwP5-117" edge="1">
          <mxGeometry relative="1" as="geometry">
            <mxPoint x="1055.8536585365846" y="880" as="sourcePoint" />
            <mxPoint x="424.1463414634145" y="510" as="targetPoint" />
          </mxGeometry>
        </mxCell>
        <mxCell id="_Ws1PRZHTwRr1ZwGSwP5-117" value="Коммутационный узел 2" style="text;html=1;align=center;verticalAlign=middle;resizable=0;points=[];autosize=1;strokeColor=none;fillColor=none;fontSize=20;" parent="1" vertex="1">
          <mxGeometry x="577" y="680" width="250" height="40" as="geometry" />
        </mxCell>
        <mxCell id="NYAGcz9PBeCmze6X147x-9" style="edgeStyle=none;rounded=0;orthogonalLoop=1;jettySize=auto;html=1;fontSize=12;" parent="1" source="NYAGcz9PBeCmze6X147x-1" target="_Ws1PRZHTwRr1ZwGSwP5-57" edge="1">
          <mxGeometry relative="1" as="geometry" />
        </mxCell>
        <mxCell id="NYAGcz9PBeCmze6X147x-1" value="" style="points=[[0.03,0.36,0],[0.18,0,0],[0.5,0.34,0],[0.82,0,0],[0.97,0.36,0],[1,0.67,0],[0.975,0.975,0],[0.5,1,0],[0.025,0.975,0],[0,0.67,0]];verticalLabelPosition=bottom;sketch=0;html=1;verticalAlign=top;aspect=fixed;align=center;pointerEvents=1;shape=mxgraph.cisco19.wireless_access_point;fillColor=#005073;strokeColor=none;fontSize=12;" parent="1" vertex="1">
          <mxGeometry x="390" y="1190" width="140" height="140" as="geometry" />
        </mxCell>
        <mxCell id="NYAGcz9PBeCmze6X147x-11" style="edgeStyle=none;rounded=0;orthogonalLoop=1;jettySize=auto;html=1;fontSize=12;" parent="1" source="NYAGcz9PBeCmze6X147x-2" target="_Ws1PRZHTwRr1ZwGSwP5-59" edge="1">
          <mxGeometry relative="1" as="geometry" />
        </mxCell>
        <mxCell id="NYAGcz9PBeCmze6X147x-2" value="" style="points=[[0.03,0.36,0],[0.18,0,0],[0.5,0.34,0],[0.82,0,0],[0.97,0.36,0],[1,0.67,0],[0.975,0.975,0],[0.5,1,0],[0.025,0.975,0],[0,0.67,0]];verticalLabelPosition=bottom;sketch=0;html=1;verticalAlign=top;aspect=fixed;align=center;pointerEvents=1;shape=mxgraph.cisco19.wireless_access_point;fillColor=#005073;strokeColor=none;fontSize=12;" parent="1" vertex="1">
          <mxGeometry x="2080" y="1200" width="140" height="140" as="geometry" />
        </mxCell>
        <mxCell id="NYAGcz9PBeCmze6X147x-10" style="edgeStyle=none;rounded=0;orthogonalLoop=1;jettySize=auto;html=1;fontSize=12;" parent="1" source="NYAGcz9PBeCmze6X147x-3" target="_Ws1PRZHTwRr1ZwGSwP5-58" edge="1">
          <mxGeometry relative="1" as="geometry" />
        </mxCell>
        <mxCell id="NYAGcz9PBeCmze6X147x-3" value="" style="points=[[0.03,0.36,0],[0.18,0,0],[0.5,0.34,0],[0.82,0,0],[0.97,0.36,0],[1,0.67,0],[0.975,0.975,0],[0.5,1,0],[0.025,0.975,0],[0,0.67,0]];verticalLabelPosition=bottom;sketch=0;html=1;verticalAlign=top;aspect=fixed;align=center;pointerEvents=1;shape=mxgraph.cisco19.wireless_access_point;fillColor=#005073;strokeColor=none;fontSize=12;" parent="1" vertex="1">
          <mxGeometry x="742.5" y="1600" width="140" height="140" as="geometry" />
        </mxCell>
        <mxCell id="NYAGcz9PBeCmze6X147x-24" style="edgeStyle=none;rounded=0;orthogonalLoop=1;jettySize=auto;html=1;fontSize=12;" parent="1" source="NYAGcz9PBeCmze6X147x-4" target="_Ws1PRZHTwRr1ZwGSwP5-60" edge="1">
          <mxGeometry relative="1" as="geometry" />
        </mxCell>
        <mxCell id="NYAGcz9PBeCmze6X147x-4" value="" style="points=[[0.03,0.36,0],[0.18,0,0],[0.5,0.34,0],[0.82,0,0],[0.97,0.36,0],[1,0.67,0],[0.975,0.975,0],[0.5,1,0],[0.025,0.975,0],[0,0.67,0]];verticalLabelPosition=bottom;sketch=0;html=1;verticalAlign=top;aspect=fixed;align=center;pointerEvents=1;shape=mxgraph.cisco19.wireless_access_point;fillColor=#005073;strokeColor=none;fontSize=12;" parent="1" vertex="1">
          <mxGeometry x="1680" y="1610" width="140" height="140" as="geometry" />
        </mxCell>
        <mxCell id="NYAGcz9PBeCmze6X147x-5" value="WIFI-AP" style="text;html=1;align=center;verticalAlign=middle;resizable=0;points=[];autosize=1;strokeColor=none;fillColor=none;fontSize=20;" parent="1" vertex="1">
          <mxGeometry x="409" y="1346" width="100" height="40" as="geometry" />
        </mxCell>
        <mxCell id="NYAGcz9PBeCmze6X147x-6" value="WIFI-AP" style="text;html=1;align=center;verticalAlign=middle;resizable=0;points=[];autosize=1;strokeColor=none;fillColor=none;fontSize=20;" parent="1" vertex="1">
          <mxGeometry x="762.5" y="1740" width="100" height="40" as="geometry" />
        </mxCell>
        <mxCell id="NYAGcz9PBeCmze6X147x-7" value="WIFI-AP" style="text;html=1;align=center;verticalAlign=middle;resizable=0;points=[];autosize=1;strokeColor=none;fillColor=none;fontSize=20;" parent="1" vertex="1">
          <mxGeometry x="1700" y="1753" width="100" height="40" as="geometry" />
        </mxCell>
        <mxCell id="NYAGcz9PBeCmze6X147x-8" value="WIFI-AP" style="text;html=1;align=center;verticalAlign=middle;resizable=0;points=[];autosize=1;strokeColor=none;fillColor=none;fontSize=20;" parent="1" vertex="1">
          <mxGeometry x="2120" y="1350" width="100" height="40" as="geometry" />
        </mxCell>
        <mxCell id="NYAGcz9PBeCmze6X147x-15" value="" style="edgeStyle=none;rounded=0;orthogonalLoop=1;jettySize=auto;html=1;fontSize=12;endArrow=none;" parent="1" source="_Ws1PRZHTwRr1ZwGSwP5-57" target="NYAGcz9PBeCmze6X147x-14" edge="1">
          <mxGeometry relative="1" as="geometry">
            <mxPoint x="741.9512195121952" y="880" as="sourcePoint" />
            <mxPoint x="408.04878048780574" y="510" as="targetPoint" />
          </mxGeometry>
        </mxCell>
        <mxCell id="NYAGcz9PBeCmze6X147x-14" value="PoE-Коммутатор" style="text;html=1;align=center;verticalAlign=middle;resizable=0;points=[];autosize=1;strokeColor=none;fillColor=none;fontSize=20;" parent="1" vertex="1">
          <mxGeometry x="630" y="835" width="180" height="40" as="geometry" />
        </mxCell>
        <mxCell id="NYAGcz9PBeCmze6X147x-16" value="" style="edgeStyle=none;rounded=0;orthogonalLoop=1;jettySize=auto;html=1;fontSize=12;endArrow=none;" parent="1" source="_Ws1PRZHTwRr1ZwGSwP5-58" target="NYAGcz9PBeCmze6X147x-13" edge="1">
          <mxGeometry relative="1" as="geometry">
            <mxPoint x="1078.29268292683" y="880" as="sourcePoint" />
            <mxPoint x="861.707317073171" y="510" as="targetPoint" />
          </mxGeometry>
        </mxCell>
        <mxCell id="NYAGcz9PBeCmze6X147x-13" value="PoE-Коммутатор" style="text;html=1;align=center;verticalAlign=middle;resizable=0;points=[];autosize=1;strokeColor=none;fillColor=none;fontSize=20;" parent="1" vertex="1">
          <mxGeometry x="970" y="835" width="180" height="40" as="geometry" />
        </mxCell>
        <mxCell id="NYAGcz9PBeCmze6X147x-17" value="PoE-Коммутатор" style="text;html=1;align=center;verticalAlign=middle;resizable=0;points=[];autosize=1;strokeColor=none;fillColor=none;fontSize=20;" parent="1" vertex="1">
          <mxGeometry x="1295" y="835" width="180" height="40" as="geometry" />
        </mxCell>
        <mxCell id="NYAGcz9PBeCmze6X147x-19" value="PoE-Коммутатор" style="text;html=1;align=center;verticalAlign=middle;resizable=0;points=[];autosize=1;strokeColor=none;fillColor=none;fontSize=20;" parent="1" vertex="1">
          <mxGeometry x="1730" y="835" width="180" height="40" as="geometry" />
        </mxCell>
        <mxCell id="NYAGcz9PBeCmze6X147x-20" value="Рабочее место" style="text;html=1;align=center;verticalAlign=middle;resizable=0;points=[];autosize=1;strokeColor=none;fillColor=none;fontSize=20;" parent="1" vertex="1">
          <mxGeometry x="445" y="1670" width="160" height="40" as="geometry" />
        </mxCell>
        <mxCell id="NYAGcz9PBeCmze6X147x-21" value="Рабочее место" style="text;html=1;align=center;verticalAlign=middle;resizable=0;points=[];autosize=1;strokeColor=none;fillColor=none;fontSize=20;" parent="1" vertex="1">
          <mxGeometry x="1010" y="1410" width="160" height="40" as="geometry" />
        </mxCell>
        <mxCell id="NYAGcz9PBeCmze6X147x-22" value="Рабочее место" style="text;html=1;align=center;verticalAlign=middle;resizable=0;points=[];autosize=1;strokeColor=none;fillColor=none;fontSize=20;" parent="1" vertex="1">
          <mxGeometry x="1375" y="1410" width="160" height="40" as="geometry" />
        </mxCell>
        <mxCell id="NYAGcz9PBeCmze6X147x-23" value="Рабочее место" style="text;html=1;align=center;verticalAlign=middle;resizable=0;points=[];autosize=1;strokeColor=none;fillColor=none;fontSize=20;" parent="1" vertex="1">
          <mxGeometry x="1995" y="1670" width="160" height="40" as="geometry" />
        </mxCell>
      </root>
    </mxGraphModel>
  </diagram>
  <diagram id="duAEUtZ6xfcJPJ7bvm76" name="Cluster">
    <mxGraphModel dx="2029" dy="1105" grid="1" gridSize="10" guides="1" tooltips="1" connect="1" arrows="1" fold="1" page="1" pageScale="1" pageWidth="827" pageHeight="1169" math="0" shadow="0">
      <root>
        <mxCell id="0" />
        <mxCell id="1" parent="0" />
        <mxCell id="FsVK8Vz8ONR8Wv5CbN7D-20" value="" style="rounded=0;whiteSpace=wrap;html=1;" parent="1" vertex="1">
          <mxGeometry x="30" y="630" width="770" height="100" as="geometry" />
        </mxCell>
        <mxCell id="FsVK8Vz8ONR8Wv5CbN7D-21" value="" style="rounded=0;whiteSpace=wrap;html=1;" parent="1" vertex="1">
          <mxGeometry x="30" y="740" width="770" height="100" as="geometry" />
        </mxCell>
        <mxCell id="UHzKjZQ2YfoTftB6WCpT-5" value="" style="rounded=0;whiteSpace=wrap;html=1;rotation=90;dashed=1;fillColor=#fff2cc;strokeColor=#d6b656;" parent="1" vertex="1">
          <mxGeometry x="170.63" y="698.13" width="167.5" height="61.25" as="geometry" />
        </mxCell>
        <mxCell id="UHzKjZQ2YfoTftB6WCpT-4" value="" style="rounded=0;whiteSpace=wrap;html=1;rotation=90;dashed=1;fillColor=#dae8fc;strokeColor=#6c8ebf;" parent="1" vertex="1">
          <mxGeometry y="700" width="165" height="60" as="geometry" />
        </mxCell>
        <mxCell id="FsVK8Vz8ONR8Wv5CbN7D-19" value="" style="rounded=0;whiteSpace=wrap;html=1;dashed=1;fillColor=#dae8fc;strokeColor=#6c8ebf;" parent="1" vertex="1">
          <mxGeometry x="10" y="20" width="790" height="220" as="geometry" />
        </mxCell>
        <mxCell id="FsVK8Vz8ONR8Wv5CbN7D-2" value="SAN group1" style="rounded=0;whiteSpace=wrap;html=1;fillColor=#dae8fc;strokeColor=#6c8ebf;align=right;" parent="1" vertex="1">
          <mxGeometry x="620" y="130" width="160" height="90" as="geometry" />
        </mxCell>
        <mxCell id="FsVK8Vz8ONR8Wv5CbN7D-1" value="SAN group 2&lt;br&gt;(как это правильно называется?))" style="rounded=0;whiteSpace=wrap;html=1;fillColor=#fff2cc;strokeColor=#d6b656;align=right;" parent="1" vertex="1">
          <mxGeometry x="620" y="34.25" width="160" height="85.75" as="geometry" />
        </mxCell>
        <mxCell id="oA4W1ajtn4wJupYVH1F6-4" value="" style="rounded=0;whiteSpace=wrap;html=1;fillColor=#d5e8d4;strokeColor=#82b366;" parent="1" vertex="1">
          <mxGeometry x="300" y="40" width="120" height="60" as="geometry" />
        </mxCell>
        <mxCell id="oA4W1ajtn4wJupYVH1F6-3" value="LACP group 2" style="rounded=0;whiteSpace=wrap;html=1;fillColor=#fff2cc;strokeColor=#d6b656;align=left;" parent="1" vertex="1">
          <mxGeometry x="460" y="130" width="140" height="90" as="geometry" />
        </mxCell>
        <mxCell id="oA4W1ajtn4wJupYVH1F6-2" value="LACP grop1" style="rounded=0;whiteSpace=wrap;html=1;fillColor=#dae8fc;strokeColor=#6c8ebf;align=left;" parent="1" vertex="1">
          <mxGeometry x="460" y="40" width="140" height="80" as="geometry" />
        </mxCell>
        <mxCell id="wakfbRwsF61YCc5iCSrM-2" value="" style="html=1;verticalLabelPosition=bottom;verticalAlign=top;outlineConnect=0;shadow=0;dashed=0;shape=mxgraph.rack.hpe_aruba.switches.rj45_sfp;rotation=-90;" parent="1" vertex="1">
          <mxGeometry x="547" y="44.5" width="32" height="30" as="geometry" />
        </mxCell>
        <mxCell id="wakfbRwsF61YCc5iCSrM-9" value="" style="html=1;verticalLabelPosition=bottom;verticalAlign=top;outlineConnect=0;shadow=0;dashed=0;shape=mxgraph.rack.hpe_aruba.switches.jl085a_aruba_6300m_psu_module;rotation=-90;" parent="1" vertex="1">
          <mxGeometry x="-25.78" y="89.23" width="185.51" height="90.07" as="geometry" />
        </mxCell>
        <mxCell id="wakfbRwsF61YCc5iCSrM-10" value="" style="html=1;verticalLabelPosition=bottom;verticalAlign=top;outlineConnect=0;shadow=0;dashed=0;shape=mxgraph.rack.hpe_aruba.switches.jl085a_aruba_6300m_psu_module;rotation=-90;" parent="1" vertex="1">
          <mxGeometry x="72.72" y="87.3" width="186.58" height="94.98" as="geometry" />
        </mxCell>
        <mxCell id="wakfbRwsF61YCc5iCSrM-11" value="" style="html=1;verticalLabelPosition=bottom;verticalAlign=top;outlineConnect=0;shadow=0;dashed=0;shape=mxgraph.rack.hpe_aruba.switches.rj45_sfp;rotation=-90;" parent="1" vertex="1">
          <mxGeometry x="547" y="81.5" width="32" height="30" as="geometry" />
        </mxCell>
        <mxCell id="wakfbRwsF61YCc5iCSrM-13" value="" style="html=1;verticalLabelPosition=bottom;verticalAlign=top;outlineConnect=0;shadow=0;dashed=0;shape=mxgraph.rack.hpe_aruba.switches.rj45_sfp;rotation=-90;" parent="1" vertex="1">
          <mxGeometry x="547" y="141" width="32" height="30" as="geometry" />
        </mxCell>
        <mxCell id="wakfbRwsF61YCc5iCSrM-14" value="" style="html=1;verticalLabelPosition=bottom;verticalAlign=top;outlineConnect=0;shadow=0;dashed=0;shape=mxgraph.rack.hpe_aruba.switches.rj45_sfp;rotation=-90;" parent="1" vertex="1">
          <mxGeometry x="547" y="180" width="32" height="30" as="geometry" />
        </mxCell>
        <mxCell id="wakfbRwsF61YCc5iCSrM-16" value="" style="html=1;verticalLabelPosition=bottom;verticalAlign=top;outlineConnect=0;shadow=0;dashed=0;shape=mxgraph.rack.hpe_aruba.switches.rj45_sfp;rotation=0;" parent="1" vertex="1">
          <mxGeometry x="321" y="50" width="32" height="30" as="geometry" />
        </mxCell>
        <mxCell id="wakfbRwsF61YCc5iCSrM-17" value="" style="html=1;verticalLabelPosition=bottom;verticalAlign=top;outlineConnect=0;shadow=0;dashed=0;shape=mxgraph.rack.hpe_aruba.switches.direct_sfp;rotation=-90;" parent="1" vertex="1">
          <mxGeometry x="631.75" y="34.25" width="40" height="44.5" as="geometry" />
        </mxCell>
        <mxCell id="wakfbRwsF61YCc5iCSrM-18" value="" style="html=1;verticalLabelPosition=bottom;verticalAlign=top;outlineConnect=0;shadow=0;dashed=0;shape=mxgraph.rack.hpe_aruba.switches.direct_sfp;rotation=-90;" parent="1" vertex="1">
          <mxGeometry x="631.75" y="73.5" width="40" height="44.5" as="geometry" />
        </mxCell>
        <mxCell id="wakfbRwsF61YCc5iCSrM-19" value="" style="html=1;verticalLabelPosition=bottom;verticalAlign=top;outlineConnect=0;shadow=0;dashed=0;shape=mxgraph.rack.hpe_aruba.switches.direct_sfp;rotation=-90;" parent="1" vertex="1">
          <mxGeometry x="631.75" y="130" width="40" height="44.5" as="geometry" />
        </mxCell>
        <mxCell id="wakfbRwsF61YCc5iCSrM-20" value="" style="html=1;verticalLabelPosition=bottom;verticalAlign=top;outlineConnect=0;shadow=0;dashed=0;shape=mxgraph.rack.hpe_aruba.switches.direct_sfp;rotation=-90;" parent="1" vertex="1">
          <mxGeometry x="631.75" y="174.5" width="40" height="44.5" as="geometry" />
        </mxCell>
        <mxCell id="oA4W1ajtn4wJupYVH1F6-1" value="IPMI" style="text;strokeColor=none;align=center;fillColor=none;html=1;verticalAlign=middle;whiteSpace=wrap;rounded=0;" parent="1" vertex="1">
          <mxGeometry x="360" y="50" width="60" height="30" as="geometry" />
        </mxCell>
        <mxCell id="FsVK8Vz8ONR8Wv5CbN7D-3" value="" style="rounded=0;whiteSpace=wrap;html=1;" parent="1" vertex="1">
          <mxGeometry x="29" y="340" width="770" height="100" as="geometry" />
        </mxCell>
        <mxCell id="FsVK8Vz8ONR8Wv5CbN7D-4" value="" style="rounded=0;whiteSpace=wrap;html=1;" parent="1" vertex="1">
          <mxGeometry x="29" y="450" width="770" height="100" as="geometry" />
        </mxCell>
        <mxCell id="FsVK8Vz8ONR8Wv5CbN7D-5" value="Стэк коммутаторов уровня распределения&amp;nbsp;" style="text;html=1;align=center;verticalAlign=middle;resizable=0;points=[];autosize=1;strokeColor=none;fillColor=none;" parent="1" vertex="1">
          <mxGeometry x="275" y="285" width="270" height="30" as="geometry" />
        </mxCell>
        <mxCell id="FsVK8Vz8ONR8Wv5CbN7D-6" value="" style="rounded=0;whiteSpace=wrap;html=1;rotation=90;dashed=1;fillColor=#dae8fc;strokeColor=#6c8ebf;" parent="1" vertex="1">
          <mxGeometry x="-2.5" y="412.5" width="165" height="60" as="geometry" />
        </mxCell>
        <mxCell id="FsVK8Vz8ONR8Wv5CbN7D-7" value="" style="rounded=0;whiteSpace=wrap;html=1;rotation=90;dashed=1;fillColor=#fff2cc;strokeColor=#d6b656;" parent="1" vertex="1">
          <mxGeometry x="170" y="411.5" width="165" height="60" as="geometry" />
        </mxCell>
        <mxCell id="FsVK8Vz8ONR8Wv5CbN7D-9" value="" style="html=1;verticalLabelPosition=bottom;verticalAlign=top;outlineConnect=0;shadow=0;dashed=0;shape=mxgraph.rack.hpe_aruba.switches.rj45_sfp;rotation=0;" parent="1" vertex="1">
          <mxGeometry x="64.00000000000003" y="382.5" width="32" height="30" as="geometry" />
        </mxCell>
        <mxCell id="FsVK8Vz8ONR8Wv5CbN7D-10" value="" style="html=1;verticalLabelPosition=bottom;verticalAlign=top;outlineConnect=0;shadow=0;dashed=0;shape=mxgraph.rack.hpe_aruba.switches.rj45_sfp;rotation=0;" parent="1" vertex="1">
          <mxGeometry x="64.00000000000003" y="471.5" width="32" height="30" as="geometry" />
        </mxCell>
        <mxCell id="FsVK8Vz8ONR8Wv5CbN7D-11" value="" style="html=1;verticalLabelPosition=bottom;verticalAlign=top;outlineConnect=0;shadow=0;dashed=0;shape=mxgraph.rack.hpe_aruba.switches.rj45_sfp;rotation=0;" parent="1" vertex="1">
          <mxGeometry x="236.50000000000003" y="381.5" width="32" height="30" as="geometry" />
        </mxCell>
        <mxCell id="FsVK8Vz8ONR8Wv5CbN7D-12" value="" style="html=1;verticalLabelPosition=bottom;verticalAlign=top;outlineConnect=0;shadow=0;dashed=0;shape=mxgraph.rack.hpe_aruba.switches.rj45_sfp;rotation=0;" parent="1" vertex="1">
          <mxGeometry x="236.50000000000003" y="471.5" width="32" height="30" as="geometry" />
        </mxCell>
        <mxCell id="FsVK8Vz8ONR8Wv5CbN7D-14" value="LACP group2" style="text;strokeColor=none;align=center;fillColor=none;html=1;verticalAlign=middle;whiteSpace=wrap;rounded=0;" parent="1" vertex="1">
          <mxGeometry x="300" y="375" width="60" height="30" as="geometry" />
        </mxCell>
        <mxCell id="FsVK8Vz8ONR8Wv5CbN7D-15" value="LACP group1" style="text;strokeColor=none;align=center;fillColor=none;html=1;verticalAlign=middle;whiteSpace=wrap;rounded=0;" parent="1" vertex="1">
          <mxGeometry x="120" y="375" width="60" height="30" as="geometry" />
        </mxCell>
        <mxCell id="FsVK8Vz8ONR8Wv5CbN7D-16" value="SW1" style="text;strokeColor=none;align=center;fillColor=none;html=1;verticalAlign=middle;whiteSpace=wrap;rounded=0;" parent="1" vertex="1">
          <mxGeometry x="670" y="375" width="60" height="30" as="geometry" />
        </mxCell>
        <mxCell id="FsVK8Vz8ONR8Wv5CbN7D-17" value="SW2" style="text;strokeColor=none;align=center;fillColor=none;html=1;verticalAlign=middle;whiteSpace=wrap;rounded=0;" parent="1" vertex="1">
          <mxGeometry x="670" y="472.5" width="60" height="30" as="geometry" />
        </mxCell>
        <mxCell id="FsVK8Vz8ONR8Wv5CbN7D-23" value="" style="html=1;verticalLabelPosition=bottom;verticalAlign=top;outlineConnect=0;shadow=0;dashed=0;shape=mxgraph.rack.hpe_aruba.switches.direct_sfp;rotation=-90;" parent="1" vertex="1">
          <mxGeometry x="60" y="650" width="40" height="44.5" as="geometry" />
        </mxCell>
        <mxCell id="FsVK8Vz8ONR8Wv5CbN7D-24" value="" style="html=1;verticalLabelPosition=bottom;verticalAlign=top;outlineConnect=0;shadow=0;dashed=0;shape=mxgraph.rack.hpe_aruba.switches.direct_sfp;rotation=-90;" parent="1" vertex="1">
          <mxGeometry x="60" y="767.75" width="40" height="44.5" as="geometry" />
        </mxCell>
        <mxCell id="FsVK8Vz8ONR8Wv5CbN7D-26" value="" style="html=1;verticalLabelPosition=bottom;verticalAlign=top;outlineConnect=0;shadow=0;dashed=0;shape=mxgraph.rack.hpe_aruba.switches.direct_sfp;rotation=-90;" parent="1" vertex="1">
          <mxGeometry x="232.5" y="650" width="40" height="44.5" as="geometry" />
        </mxCell>
        <mxCell id="FsVK8Vz8ONR8Wv5CbN7D-27" value="" style="html=1;verticalLabelPosition=bottom;verticalAlign=top;outlineConnect=0;shadow=0;dashed=0;shape=mxgraph.rack.hpe_aruba.switches.direct_sfp;rotation=-90;" parent="1" vertex="1">
          <mxGeometry x="235" y="767.75" width="40" height="44.5" as="geometry" />
        </mxCell>
        <mxCell id="JnxQoIB7_la2BPBoWnnu-1" value="Fabric-0" style="text;html=1;align=center;verticalAlign=middle;resizable=0;points=[];autosize=1;strokeColor=none;fillColor=none;" parent="1" vertex="1">
          <mxGeometry x="616.75" y="665" width="70" height="30" as="geometry" />
        </mxCell>
        <mxCell id="UHzKjZQ2YfoTftB6WCpT-1" value="Fabric-1" style="text;html=1;align=center;verticalAlign=middle;resizable=0;points=[];autosize=1;strokeColor=none;fillColor=none;" parent="1" vertex="1">
          <mxGeometry x="616.75" y="760" width="70" height="30" as="geometry" />
        </mxCell>
        <mxCell id="UHzKjZQ2YfoTftB6WCpT-3" value="Стэк оптических коммутаторов" style="text;html=1;align=center;verticalAlign=middle;resizable=0;points=[];autosize=1;strokeColor=none;fillColor=none;" parent="1" vertex="1">
          <mxGeometry x="305" y="580" width="200" height="30" as="geometry" />
        </mxCell>
        <mxCell id="UHzKjZQ2YfoTftB6WCpT-6" value="SAN group1" style="text;strokeColor=none;align=center;fillColor=none;html=1;verticalAlign=middle;whiteSpace=wrap;rounded=0;" parent="1" vertex="1">
          <mxGeometry x="120" y="670" width="60" height="30" as="geometry" />
        </mxCell>
        <mxCell id="UHzKjZQ2YfoTftB6WCpT-8" value="SAN group2" style="text;strokeColor=none;align=center;fillColor=none;html=1;verticalAlign=middle;whiteSpace=wrap;rounded=0;" parent="1" vertex="1">
          <mxGeometry x="300" y="668.13" width="60" height="30" as="geometry" />
        </mxCell>
        <mxCell id="UHzKjZQ2YfoTftB6WCpT-9" value="" style="rounded=0;whiteSpace=wrap;html=1;" parent="1" vertex="1">
          <mxGeometry x="30" y="900" width="770" height="100" as="geometry" />
        </mxCell>
        <mxCell id="UHzKjZQ2YfoTftB6WCpT-10" value="Свитч управления (IPMI)" style="text;html=1;align=center;verticalAlign=middle;resizable=0;points=[];autosize=1;strokeColor=none;fillColor=none;" parent="1" vertex="1">
          <mxGeometry x="330" y="860" width="160" height="30" as="geometry" />
        </mxCell>
        <mxCell id="UHzKjZQ2YfoTftB6WCpT-14" value="" style="rounded=0;whiteSpace=wrap;html=1;fillColor=#d5e8d4;strokeColor=#82b366;" parent="1" vertex="1">
          <mxGeometry x="50.629999999999995" y="920" width="120" height="60" as="geometry" />
        </mxCell>
        <mxCell id="UHzKjZQ2YfoTftB6WCpT-15" value="" style="html=1;verticalLabelPosition=bottom;verticalAlign=top;outlineConnect=0;shadow=0;dashed=0;shape=mxgraph.rack.hpe_aruba.switches.rj45_sfp;rotation=0;" parent="1" vertex="1">
          <mxGeometry x="71.63" y="930" width="32" height="30" as="geometry" />
        </mxCell>
        <mxCell id="UHzKjZQ2YfoTftB6WCpT-16" value="IPMI" style="text;strokeColor=none;align=center;fillColor=none;html=1;verticalAlign=middle;whiteSpace=wrap;rounded=0;" parent="1" vertex="1">
          <mxGeometry x="110.63" y="930" width="60" height="30" as="geometry" />
        </mxCell>
      </root>
    </mxGraphModel>
  </diagram>
  <diagram id="M-Ho3rfDjimcPCFn0re6" name="Racks">
    <mxGraphModel dx="4041" dy="2469" grid="1" gridSize="10" guides="1" tooltips="1" connect="1" arrows="1" fold="1" page="1" pageScale="1" pageWidth="827" pageHeight="1169" math="0" shadow="0">
      <root>
        <mxCell id="0" />
        <mxCell id="1" parent="0" />
        <UserObject label="" id="jI1mexVcvVcXKWXV-CNT-1">
          <mxCell style="verticalLabelPosition=bottom;verticalAlign=top;html=1;shape=mxgraph.basic.patternFillRect;fillStyle=diagRev;step=5;fillStrokeWidth=0.2;fillStrokeColor=#dddddd;fillColor=#fff2cc;strokeColor=#d6b656;" parent="1" vertex="1">
            <mxGeometry x="900" y="-46" width="390" height="966" as="geometry" />
          </mxCell>
        </UserObject>
        <mxCell id="EOidf3M5MeJ3_wlTqR_d-3" value="" style="verticalLabelPosition=bottom;verticalAlign=top;html=1;shape=mxgraph.basic.patternFillRect;fillStyle=diagRev;step=5;fillStrokeWidth=0.2;fillStrokeColor=#dddddd;fillColor=#fff2cc;strokeColor=#d6b656;" parent="1" vertex="1">
          <mxGeometry y="-46" width="410" height="966" as="geometry" />
        </mxCell>
        <UserObject label="" id="EOidf3M5MeJ3_wlTqR_d-4">
          <mxCell style="verticalLabelPosition=bottom;verticalAlign=top;html=1;shape=mxgraph.basic.patternFillRect;fillStyle=diagRev;step=5;fillStrokeWidth=0.2;fillStrokeColor=#dddddd;fillColor=#fff2cc;strokeColor=#d6b656;textOpacity=50;" parent="1" vertex="1">
            <mxGeometry x="430" y="-46" width="451" height="966" as="geometry" />
          </mxCell>
        </UserObject>
        <mxCell id="EOidf3M5MeJ3_wlTqR_d-1" value="" style="verticalLabelPosition=bottom;verticalAlign=top;html=1;shape=mxgraph.basic.patternFillRect;fillStyle=diagRev;step=5;fillStrokeWidth=0.2;fillStrokeColor=#dddddd;fillColor=#fff2cc;strokeColor=#d6b656;" parent="1" vertex="1">
          <mxGeometry x="-1040" y="-40" width="380" height="870" as="geometry" />
        </mxCell>
        <mxCell id="UMnFk9b5d5Pb2FI-Q5WA-3" value="" style="verticalLabelPosition=bottom;verticalAlign=top;html=1;shape=mxgraph.basic.patternFillRect;fillStyle=diagRev;step=5;fillStrokeWidth=0.2;fillStrokeColor=#dddddd;fillColor=#dae8fc;strokeColor=#6c8ebf;" parent="1" vertex="1">
          <mxGeometry x="-1017" y="609.5" width="337" height="75" as="geometry" />
        </mxCell>
        <mxCell id="EOidf3M5MeJ3_wlTqR_d-2" value="" style="verticalLabelPosition=bottom;verticalAlign=top;html=1;shape=mxgraph.basic.patternFillRect;fillStyle=diagRev;step=5;fillStrokeWidth=0.2;fillStrokeColor=#dddddd;fillColor=#fff2cc;strokeColor=#d6b656;" parent="1" vertex="1">
          <mxGeometry x="-460" y="-46" width="400" height="966" as="geometry" />
        </mxCell>
        <mxCell id="47tPoqf9I0x5_xh4SPXg-3" value="" style="verticalLabelPosition=bottom;verticalAlign=top;html=1;shape=mxgraph.basic.patternFillRect;fillStyle=diagRev;step=5;fillStrokeWidth=0.2;fillStrokeColor=#dddddd;fillColor=#dae8fc;strokeColor=#6c8ebf;" parent="1" vertex="1">
          <mxGeometry x="-1020" y="27.5" width="340" height="561" as="geometry" />
        </mxCell>
        <mxCell id="6uPObzZn_4LbKm61lofq-1" value="" style="sketch=0;pointerEvents=1;shadow=0;dashed=0;html=1;strokeColor=none;fillColor=#005F4B;labelPosition=center;verticalLabelPosition=bottom;verticalAlign=top;align=center;outlineConnect=0;shape=mxgraph.veeam2.storage;" parent="1" vertex="1">
          <mxGeometry x="-1000" y="43.5" width="158.5" height="60" as="geometry" />
        </mxCell>
        <mxCell id="6uPObzZn_4LbKm61lofq-2" value="" style="sketch=0;pointerEvents=1;shadow=0;dashed=0;html=1;strokeColor=none;fillColor=#005F4B;labelPosition=center;verticalLabelPosition=bottom;verticalAlign=top;align=center;outlineConnect=0;shape=mxgraph.veeam2.storage;" parent="1" vertex="1">
          <mxGeometry x="-1000" y="109.5" width="158.5" height="60" as="geometry" />
        </mxCell>
        <mxCell id="6uPObzZn_4LbKm61lofq-3" value="" style="sketch=0;pointerEvents=1;shadow=0;dashed=0;html=1;strokeColor=none;fillColor=#005F4B;labelPosition=center;verticalLabelPosition=bottom;verticalAlign=top;align=center;outlineConnect=0;shape=mxgraph.veeam2.storage_stack;" parent="1" vertex="1">
          <mxGeometry x="-1000" y="178.5" width="161" height="110" as="geometry" />
        </mxCell>
        <mxCell id="3HJoMGYgJjyMw6QbryuA-3" value="Уровень доступа + патч-панели медь" style="text;strokeColor=none;align=center;fillColor=none;html=1;verticalAlign=middle;whiteSpace=wrap;rounded=0;" parent="1" vertex="1">
          <mxGeometry x="729" y="258.5" width="131" height="30" as="geometry" />
        </mxCell>
        <mxCell id="2yAeMN1qXg4DZN1s8fVL-1" value="Резервная система данных" style="text;strokeColor=none;align=center;fillColor=none;html=1;verticalAlign=middle;whiteSpace=wrap;rounded=0;" parent="1" vertex="1">
          <mxGeometry x="-792" y="62.5" width="60" height="30" as="geometry" />
        </mxCell>
        <mxCell id="CbiM2CTOUDbleY8wzYMZ-2" value="" style="sketch=0;pointerEvents=1;shadow=0;dashed=0;html=1;strokeColor=none;fillColor=#005F4B;labelPosition=center;verticalLabelPosition=bottom;verticalAlign=top;align=center;outlineConnect=0;shape=mxgraph.veeam2.tape_library;fontSize=12;" parent="1" vertex="1">
          <mxGeometry x="-1000" y="298" width="190" height="232.5" as="geometry" />
        </mxCell>
        <mxCell id="CbiM2CTOUDbleY8wzYMZ-7" value="" style="verticalLabelPosition=bottom;verticalAlign=top;html=1;shape=mxgraph.basic.patternFillRect;fillStyle=diagRev;step=5;fillStrokeWidth=0.2;fillStrokeColor=#dddddd;fillColor=#dae8fc;strokeColor=#6c8ebf;" parent="1" vertex="1">
          <mxGeometry x="-1020" y="726.5" width="333" height="75" as="geometry" />
        </mxCell>
        <mxCell id="CbiM2CTOUDbleY8wzYMZ-8" value="" style="shape=mxgraph.rack.apc.apc_smart_ups_1000-3000_va_2u;html=1;labelPosition=right;align=left;spacingLeft=15;dashed=0;shadow=0;fillColor=#ffffff;" parent="1" vertex="1">
          <mxGeometry x="-996.5" y="731.5" width="161" height="30" as="geometry" />
        </mxCell>
        <mxCell id="CbiM2CTOUDbleY8wzYMZ-9" value="" style="shape=mxgraph.rack.apc.apc_smart_ups_1000-3000_va_2u;html=1;labelPosition=right;align=left;spacingLeft=15;dashed=0;shadow=0;fillColor=#ffffff;" parent="1" vertex="1">
          <mxGeometry x="-996.5" y="766.5" width="161" height="30" as="geometry" />
        </mxCell>
        <mxCell id="CbiM2CTOUDbleY8wzYMZ-10" value="ИБП" style="text;strokeColor=none;align=center;fillColor=none;html=1;verticalAlign=middle;whiteSpace=wrap;rounded=0;" parent="1" vertex="1">
          <mxGeometry x="-787" y="749" width="60" height="30" as="geometry" />
        </mxCell>
        <mxCell id="S1e3VjSvyS8Uk7lGEJ8c-1" value="Стойка на территории клиники" style="text;strokeColor=none;align=center;fillColor=none;html=1;verticalAlign=middle;whiteSpace=wrap;rounded=0;" parent="1" vertex="1">
          <mxGeometry x="-917" y="-31.5" width="140" height="30" as="geometry" />
        </mxCell>
        <mxCell id="S1e3VjSvyS8Uk7lGEJ8c-2" value="Стойка 1" style="text;strokeColor=none;align=center;fillColor=none;html=1;verticalAlign=middle;whiteSpace=wrap;rounded=0;" parent="1" vertex="1">
          <mxGeometry x="-343" y="-35" width="140" height="30" as="geometry" />
        </mxCell>
        <mxCell id="S1e3VjSvyS8Uk7lGEJ8c-3" value="Стойка 2" style="text;strokeColor=none;align=center;fillColor=none;html=1;verticalAlign=middle;whiteSpace=wrap;rounded=0;" parent="1" vertex="1">
          <mxGeometry x="120" y="-30" width="140" height="30" as="geometry" />
        </mxCell>
        <mxCell id="S1e3VjSvyS8Uk7lGEJ8c-4" value="Стойка 3" style="text;strokeColor=none;align=center;fillColor=none;html=1;verticalAlign=middle;whiteSpace=wrap;rounded=0;" parent="1" vertex="1">
          <mxGeometry x="624" y="-30" width="140" height="30" as="geometry" />
        </mxCell>
        <mxCell id="jI1mexVcvVcXKWXV-CNT-2" value="Стойка 4 ИБП" style="text;strokeColor=none;align=center;fillColor=none;html=1;verticalAlign=middle;whiteSpace=wrap;rounded=0;" parent="1" vertex="1">
          <mxGeometry x="1030" y="-30" width="140" height="30" as="geometry" />
        </mxCell>
        <mxCell id="UMnFk9b5d5Pb2FI-Q5WA-2" value="" style="shape=mxgraph.rack.ibm.ibm_x3690;html=1;labelPosition=right;align=left;spacingLeft=15;dashed=0;shadow=0;fillColor=#ffffff;" parent="1" vertex="1">
          <mxGeometry x="-1007" y="627" width="161" height="30" as="geometry" />
        </mxCell>
        <mxCell id="UMnFk9b5d5Pb2FI-Q5WA-4" value="Бэкап сервер" style="text;strokeColor=none;align=center;fillColor=none;html=1;verticalAlign=middle;whiteSpace=wrap;rounded=0;" parent="1" vertex="1">
          <mxGeometry x="-792" y="627" width="60" height="30" as="geometry" />
        </mxCell>
        <mxCell id="F2zC-7TGeddpEsXp4Xp--2" value="" style="strokeColor=#666666;html=1;verticalLabelPosition=bottom;labelBackgroundColor=#ffffff;verticalAlign=top;outlineConnect=0;shadow=0;dashed=0;shape=mxgraph.rackGeneral.rackCabinet2;fillColor2=#f4f4f4;container=1;collapsible=0;childLayout=rack;allowGaps=1;marginLeft=33;marginRight=9;marginTop=21;marginBottom=22;textColor=#666666;numDisp=descend;unitNum=48;rackUnitSize=18;" vertex="1" parent="1">
          <mxGeometry x="450" width="274" height="908.5" as="geometry" />
        </mxCell>
        <mxCell id="F2zC-7TGeddpEsXp4Xp--8" value="" style="strokeColor=#666666;html=1;labelPosition=right;align=left;spacingLeft=15;shadow=0;dashed=0;outlineConnect=0;shape=mxgraph.rackGeneral.horCableDuct;" vertex="1" parent="F2zC-7TGeddpEsXp4Xp--2">
          <mxGeometry x="33" y="21" width="232" height="18" as="geometry" />
        </mxCell>
        <mxCell id="F2zC-7TGeddpEsXp4Xp--7" value="" style="strokeColor=#666666;html=1;labelPosition=right;align=left;spacingLeft=15;shadow=0;dashed=0;outlineConnect=0;shape=mxgraph.rackGeneral.neatPatch;" vertex="1" parent="F2zC-7TGeddpEsXp4Xp--2">
          <mxGeometry x="33" y="39" width="232" height="18" as="geometry" />
        </mxCell>
        <mxCell id="F2zC-7TGeddpEsXp4Xp--9" value="" style="strokeColor=#666666;html=1;labelPosition=right;align=left;spacingLeft=15;shadow=0;dashed=0;outlineConnect=0;shape=mxgraph.rackGeneral.horCableDuct;" vertex="1" parent="F2zC-7TGeddpEsXp4Xp--2">
          <mxGeometry x="33" y="57" width="232" height="18" as="geometry" />
        </mxCell>
        <mxCell id="F2zC-7TGeddpEsXp4Xp--10" value="" style="strokeColor=#666666;html=1;labelPosition=right;align=left;spacingLeft=15;shadow=0;dashed=0;outlineConnect=0;shape=mxgraph.rackGeneral.neatPatch;" vertex="1" parent="F2zC-7TGeddpEsXp4Xp--2">
          <mxGeometry x="33" y="75" width="232" height="18" as="geometry" />
        </mxCell>
        <mxCell id="F2zC-7TGeddpEsXp4Xp--30" value="" style="shape=mxgraph.rack.cisco.cisco_catalyst_4948_switch;html=1;labelPosition=right;align=left;spacingLeft=15;dashed=0;shadow=0;fillColor=#ffffff;" vertex="1" parent="F2zC-7TGeddpEsXp4Xp--2">
          <mxGeometry x="33" y="93" width="232" height="18" as="geometry" />
        </mxCell>
        <mxCell id="F2zC-7TGeddpEsXp4Xp--31" value="" style="shape=mxgraph.rack.cisco.cisco_catalyst_4948_switch;html=1;labelPosition=right;align=left;spacingLeft=15;dashed=0;shadow=0;fillColor=#ffffff;" vertex="1" parent="F2zC-7TGeddpEsXp4Xp--2">
          <mxGeometry x="33" y="111" width="232" height="18" as="geometry" />
        </mxCell>
        <mxCell id="F2zC-7TGeddpEsXp4Xp--21" value="" style="strokeColor=#666666;html=1;labelPosition=right;align=left;spacingLeft=15;shadow=0;dashed=0;outlineConnect=0;shape=mxgraph.rackGeneral.neatPatch;" vertex="1" parent="F2zC-7TGeddpEsXp4Xp--2">
          <mxGeometry x="33" y="147" width="232" height="18" as="geometry" />
        </mxCell>
        <mxCell id="F2zC-7TGeddpEsXp4Xp--20" value="" style="strokeColor=#666666;html=1;labelPosition=right;align=left;spacingLeft=15;shadow=0;dashed=0;outlineConnect=0;shape=mxgraph.rackGeneral.horCableDuct;" vertex="1" parent="F2zC-7TGeddpEsXp4Xp--2">
          <mxGeometry x="33" y="129" width="232" height="18" as="geometry" />
        </mxCell>
        <mxCell id="F2zC-7TGeddpEsXp4Xp--23" value="" style="strokeColor=#666666;html=1;labelPosition=right;align=left;spacingLeft=15;shadow=0;dashed=0;outlineConnect=0;shape=mxgraph.rackGeneral.neatPatch;" vertex="1" parent="F2zC-7TGeddpEsXp4Xp--2">
          <mxGeometry x="33" y="183" width="232" height="18" as="geometry" />
        </mxCell>
        <mxCell id="F2zC-7TGeddpEsXp4Xp--22" value="" style="strokeColor=#666666;html=1;labelPosition=right;align=left;spacingLeft=15;shadow=0;dashed=0;outlineConnect=0;shape=mxgraph.rackGeneral.horCableDuct;" vertex="1" parent="F2zC-7TGeddpEsXp4Xp--2">
          <mxGeometry x="33" y="165" width="232" height="18" as="geometry" />
        </mxCell>
        <mxCell id="F2zC-7TGeddpEsXp4Xp--27" value="" style="html=1;verticalLabelPosition=bottom;verticalAlign=top;outlineConnect=0;shadow=0;dashed=0;shape=mxgraph.rack.hpe_aruba.gateways_controllers.aruba_7024_mobility_controller_front;" vertex="1" parent="F2zC-7TGeddpEsXp4Xp--2">
          <mxGeometry x="33" y="219" width="232" height="18" as="geometry" />
        </mxCell>
        <mxCell id="F2zC-7TGeddpEsXp4Xp--28" value="" style="strokeColor=#666666;html=1;labelPosition=right;align=left;spacingLeft=15;shadow=0;dashed=0;outlineConnect=0;shape=mxgraph.rack.general.cat5e_rack_mount_patch_panel_24_ports;" vertex="1" parent="F2zC-7TGeddpEsXp4Xp--2">
          <mxGeometry x="33" y="237" width="232" height="18" as="geometry" />
        </mxCell>
        <mxCell id="F2zC-7TGeddpEsXp4Xp--26" value="" style="html=1;verticalLabelPosition=bottom;verticalAlign=top;outlineConnect=0;shadow=0;dashed=0;shape=mxgraph.rack.hpe_aruba.gateways_controllers.aruba_7024_mobility_controller_front;" vertex="1" parent="F2zC-7TGeddpEsXp4Xp--2">
          <mxGeometry x="33" y="255" width="232" height="18" as="geometry" />
        </mxCell>
        <mxCell id="F2zC-7TGeddpEsXp4Xp--19" value="" style="strokeColor=#666666;html=1;labelPosition=right;align=left;spacingLeft=15;shadow=0;dashed=0;outlineConnect=0;shape=mxgraph.rack.general.cat5e_rack_mount_patch_panel_24_ports;" vertex="1" parent="F2zC-7TGeddpEsXp4Xp--2">
          <mxGeometry x="33" y="273" width="232" height="18" as="geometry" />
        </mxCell>
        <mxCell id="F2zC-7TGeddpEsXp4Xp--24" value="" style="html=1;verticalLabelPosition=bottom;verticalAlign=top;outlineConnect=0;shadow=0;dashed=0;shape=mxgraph.rack.hpe_aruba.gateways_controllers.aruba_7024_mobility_controller_front;" vertex="1" parent="F2zC-7TGeddpEsXp4Xp--2">
          <mxGeometry x="33" y="291" width="232" height="18" as="geometry" />
        </mxCell>
        <mxCell id="F2zC-7TGeddpEsXp4Xp--25" value="" style="strokeColor=#666666;html=1;labelPosition=right;align=left;spacingLeft=15;shadow=0;dashed=0;outlineConnect=0;shape=mxgraph.rack.general.cat5e_rack_mount_patch_panel_24_ports;" vertex="1" parent="F2zC-7TGeddpEsXp4Xp--2">
          <mxGeometry x="33" y="309" width="232" height="18" as="geometry" />
        </mxCell>
        <mxCell id="F2zC-7TGeddpEsXp4Xp--34" value="" style="strokeColor=#666666;html=1;labelPosition=right;align=left;spacingLeft=15;shadow=0;dashed=0;outlineConnect=0;shape=mxgraph.rack.general.cat5e_rack_mount_patch_panel_24_ports;" vertex="1" parent="F2zC-7TGeddpEsXp4Xp--2">
          <mxGeometry x="33" y="345" width="232" height="18" as="geometry" />
        </mxCell>
        <mxCell id="F2zC-7TGeddpEsXp4Xp--33" value="" style="html=1;verticalLabelPosition=bottom;verticalAlign=top;outlineConnect=0;shadow=0;dashed=0;shape=mxgraph.rack.hpe_aruba.gateways_controllers.aruba_7024_mobility_controller_front;" vertex="1" parent="F2zC-7TGeddpEsXp4Xp--2">
          <mxGeometry x="33" y="327" width="232" height="18" as="geometry" />
        </mxCell>
        <mxCell id="F2zC-7TGeddpEsXp4Xp--37" value="" style="strokeColor=#666666;html=1;labelPosition=right;align=left;spacingLeft=15;shadow=0;dashed=0;outlineConnect=0;shape=mxgraph.rackGeneral.plate;fillColor=#e8e8e8;" vertex="1" parent="F2zC-7TGeddpEsXp4Xp--2">
          <mxGeometry x="33" y="363" width="232" height="18" as="geometry" />
        </mxCell>
        <mxCell id="F2zC-7TGeddpEsXp4Xp--40" value="" style="strokeColor=#666666;html=1;labelPosition=right;align=left;spacingLeft=15;shadow=0;dashed=0;outlineConnect=0;shape=mxgraph.rackGeneral.neatPatch;" vertex="1" parent="F2zC-7TGeddpEsXp4Xp--2">
          <mxGeometry x="33" y="381" width="232" height="18" as="geometry" />
        </mxCell>
        <mxCell id="I6fzosCp6QrTJVA8OgAi-3" value="" style="strokeColor=#666666;html=1;labelPosition=right;align=left;spacingLeft=15;shadow=0;dashed=0;outlineConnect=0;shape=mxgraph.rackGeneral.horCableDuct;" vertex="1" parent="F2zC-7TGeddpEsXp4Xp--2">
          <mxGeometry x="33" y="399" width="232" height="18" as="geometry" />
        </mxCell>
        <mxCell id="F2zC-7TGeddpEsXp4Xp--32" value="" style="shape=mxgraph.rack.cisco.cisco_catalyst_4948_switch;html=1;labelPosition=right;align=left;spacingLeft=15;dashed=0;shadow=0;fillColor=#ffffff;" vertex="1" parent="F2zC-7TGeddpEsXp4Xp--2">
          <mxGeometry x="33" y="417" width="232" height="18" as="geometry" />
        </mxCell>
        <mxCell id="F2zC-7TGeddpEsXp4Xp--35" value="" style="shape=mxgraph.rack.cisco.cisco_catalyst_4948_switch;html=1;labelPosition=right;align=left;spacingLeft=15;dashed=0;shadow=0;fillColor=#ffffff;" vertex="1" parent="F2zC-7TGeddpEsXp4Xp--2">
          <mxGeometry x="33" y="435" width="232" height="18" as="geometry" />
        </mxCell>
        <mxCell id="I6fzosCp6QrTJVA8OgAi-4" value="" style="strokeColor=#666666;html=1;labelPosition=right;align=left;spacingLeft=15;shadow=0;dashed=0;outlineConnect=0;shape=mxgraph.rackGeneral.horCableDuct;" vertex="1" parent="F2zC-7TGeddpEsXp4Xp--2">
          <mxGeometry x="33" y="453" width="232" height="18" as="geometry" />
        </mxCell>
        <mxCell id="F2zC-7TGeddpEsXp4Xp--41" value="" style="strokeColor=#666666;html=1;labelPosition=right;align=left;spacingLeft=15;shadow=0;dashed=0;outlineConnect=0;shape=mxgraph.rackGeneral.neatPatch;" vertex="1" parent="F2zC-7TGeddpEsXp4Xp--2">
          <mxGeometry x="33" y="471" width="232" height="18" as="geometry" />
        </mxCell>
        <mxCell id="gjif94E9yHhyLap7A_vw-2" value="" style="strokeColor=#666666;html=1;labelPosition=right;align=left;spacingLeft=15;shadow=0;dashed=0;outlineConnect=0;shape=mxgraph.rack.general.switches_1;fontSize=10;" vertex="1" parent="F2zC-7TGeddpEsXp4Xp--2">
          <mxGeometry x="33" y="489" width="232" height="18" as="geometry" />
        </mxCell>
        <mxCell id="gjif94E9yHhyLap7A_vw-3" value="" style="strokeColor=#666666;html=1;labelPosition=right;align=left;spacingLeft=15;shadow=0;dashed=0;outlineConnect=0;shape=mxgraph.rack.general.switches_1;fontSize=10;" vertex="1" parent="F2zC-7TGeddpEsXp4Xp--2">
          <mxGeometry x="33" y="507" width="232" height="18" as="geometry" />
        </mxCell>
        <mxCell id="UMnFk9b5d5Pb2FI-Q5WA-6" value="" style="shape=mxgraph.rack.ibm.ibm_x3690;html=1;labelPosition=right;align=left;spacingLeft=15;dashed=0;shadow=0;fillColor=#ffffff;" parent="F2zC-7TGeddpEsXp4Xp--2" vertex="1">
          <mxGeometry x="33" y="561" width="232" height="36" as="geometry" />
        </mxCell>
        <mxCell id="F2zC-7TGeddpEsXp4Xp--44" value="FC-Switch-0" style="text;html=1;align=center;verticalAlign=middle;resizable=0;points=[];autosize=1;strokeColor=none;fillColor=none;fontSize=10;" vertex="1" parent="1">
          <mxGeometry x="-145" y="118.5" width="80" height="30" as="geometry" />
        </mxCell>
        <mxCell id="F2zC-7TGeddpEsXp4Xp--45" value="FC-Switch-1" style="text;html=1;align=center;verticalAlign=middle;resizable=0;points=[];autosize=1;strokeColor=none;fillColor=none;fontSize=10;" vertex="1" parent="1">
          <mxGeometry x="330" y="124.5" width="80" height="30" as="geometry" />
        </mxCell>
        <mxCell id="F2zC-7TGeddpEsXp4Xp--46" value="Core-0" style="text;html=1;align=center;verticalAlign=middle;resizable=0;points=[];autosize=1;strokeColor=none;fillColor=none;fontSize=9;" vertex="1" parent="1">
          <mxGeometry x="734" y="378.5" width="50" height="20" as="geometry" />
        </mxCell>
        <mxCell id="F2zC-7TGeddpEsXp4Xp--47" value="Core-1" style="text;html=1;align=center;verticalAlign=middle;resizable=0;points=[];autosize=1;strokeColor=none;fillColor=none;fontSize=9;" vertex="1" parent="1">
          <mxGeometry x="734" y="398.5" width="50" height="20" as="geometry" />
        </mxCell>
        <mxCell id="F2zC-7TGeddpEsXp4Xp--48" value="mgmt" style="text;html=1;align=center;verticalAlign=middle;resizable=0;points=[];autosize=1;strokeColor=none;fillColor=none;fontSize=9;" vertex="1" parent="1">
          <mxGeometry x="734" y="358.5" width="50" height="20" as="geometry" />
        </mxCell>
        <mxCell id="gjif94E9yHhyLap7A_vw-1" value="&lt;meta charset=&quot;utf-8&quot; style=&quot;font-size: 10px;&quot;&gt;&lt;span style=&quot;color: rgb(0, 0, 0); font-family: Helvetica; font-size: 10px; font-style: normal; font-variant-ligatures: normal; font-variant-caps: normal; font-weight: 400; letter-spacing: normal; orphans: 2; text-align: center; text-indent: 0px; text-transform: none; widows: 2; word-spacing: 0px; -webkit-text-stroke-width: 0px; background-color: rgb(251, 251, 251); text-decoration-thickness: initial; text-decoration-style: initial; text-decoration-color: initial; float: none; display: inline !important;&quot;&gt;Уровень распределения&lt;/span&gt;" style="text;whiteSpace=wrap;html=1;fontSize=10;" vertex="1" parent="1">
          <mxGeometry x="740" y="98.5" width="130" height="30" as="geometry" />
        </mxCell>
        <mxCell id="gjif94E9yHhyLap7A_vw-4" value="Firewall" style="text;html=1;align=center;verticalAlign=middle;resizable=0;points=[];autosize=1;strokeColor=none;fillColor=none;fontSize=10;" vertex="1" parent="1">
          <mxGeometry x="732" y="488.5" width="60" height="30" as="geometry" />
        </mxCell>
        <mxCell id="gjif94E9yHhyLap7A_vw-5" value="Лог сервер" style="text;html=1;align=center;verticalAlign=middle;resizable=0;points=[];autosize=1;strokeColor=none;fillColor=none;fontSize=10;" vertex="1" parent="1">
          <mxGeometry x="719" y="558.5" width="80" height="30" as="geometry" />
        </mxCell>
        <mxCell id="gjif94E9yHhyLap7A_vw-6" value="Оптическая патч-панель" style="text;html=1;align=center;verticalAlign=middle;resizable=0;points=[];autosize=1;strokeColor=none;fillColor=none;fontSize=10;" vertex="1" parent="1">
          <mxGeometry x="724" y="148.5" width="140" height="30" as="geometry" />
        </mxCell>
        <mxCell id="gjif94E9yHhyLap7A_vw-7" value="Оптическая патч-панель" style="text;html=1;align=center;verticalAlign=middle;resizable=0;points=[];autosize=1;strokeColor=none;fillColor=none;fontSize=10;" vertex="1" parent="1">
          <mxGeometry x="724" y="38.5" width="140" height="30" as="geometry" />
        </mxCell>
        <mxCell id="gjif94E9yHhyLap7A_vw-10" value="" style="strokeColor=#666666;html=1;verticalLabelPosition=bottom;labelBackgroundColor=#ffffff;verticalAlign=top;outlineConnect=0;shadow=0;dashed=0;shape=mxgraph.rackGeneral.rackCabinet2;fillColor2=#f4f4f4;container=1;collapsible=0;childLayout=rack;allowGaps=1;marginLeft=33;marginRight=9;marginTop=21;marginBottom=22;textColor=#666666;numDisp=descend;unitNum=48;rackUnitSize=18;" vertex="1" parent="1">
          <mxGeometry x="930" width="300" height="908.5" as="geometry" />
        </mxCell>
        <mxCell id="gjif94E9yHhyLap7A_vw-40" value="" style="strokeColor=#666666;html=1;verticalLabelPosition=bottom;labelBackgroundColor=#ffffff;verticalAlign=top;outlineConnect=0;shadow=0;dashed=0;shape=mxgraph.rack.general.server_1;fontSize=10;" vertex="1" parent="gjif94E9yHhyLap7A_vw-10">
          <mxGeometry x="33" y="21" width="258" height="864" as="geometry" />
        </mxCell>
        <mxCell id="gjif94E9yHhyLap7A_vw-72" value="" style="strokeColor=#666666;html=1;verticalLabelPosition=bottom;labelBackgroundColor=#ffffff;verticalAlign=top;outlineConnect=0;shadow=0;dashed=0;shape=mxgraph.rackGeneral.rackCabinet2;fillColor2=#f4f4f4;container=1;collapsible=0;childLayout=rack;allowGaps=1;marginLeft=33;marginRight=9;marginTop=21;marginBottom=22;textColor=#666666;numDisp=descend;unitNum=48;rackUnitSize=18;" vertex="1" parent="1">
          <mxGeometry x="30" width="300" height="908.5" as="geometry" />
        </mxCell>
        <mxCell id="gjif94E9yHhyLap7A_vw-99" value="" style="strokeColor=#666666;html=1;labelPosition=right;align=left;spacingLeft=15;shadow=0;dashed=0;outlineConnect=0;shape=mxgraph.rackGeneral.horCableDuct;" vertex="1" parent="gjif94E9yHhyLap7A_vw-72">
          <mxGeometry x="33" y="21" width="258" height="18" as="geometry" />
        </mxCell>
        <mxCell id="gjif94E9yHhyLap7A_vw-102" value="" style="strokeColor=#666666;html=1;labelPosition=right;align=left;spacingLeft=15;shadow=0;dashed=0;outlineConnect=0;shape=mxgraph.rackGeneral.neatPatch;" vertex="1" parent="gjif94E9yHhyLap7A_vw-72">
          <mxGeometry x="33" y="75" width="258" height="18" as="geometry" />
        </mxCell>
        <mxCell id="gjif94E9yHhyLap7A_vw-101" value="" style="strokeColor=#666666;html=1;labelPosition=right;align=left;spacingLeft=15;shadow=0;dashed=0;outlineConnect=0;shape=mxgraph.rackGeneral.horCableDuct;" vertex="1" parent="gjif94E9yHhyLap7A_vw-72">
          <mxGeometry x="33" y="57" width="258" height="18" as="geometry" />
        </mxCell>
        <mxCell id="gjif94E9yHhyLap7A_vw-100" value="" style="strokeColor=#666666;html=1;labelPosition=right;align=left;spacingLeft=15;shadow=0;dashed=0;outlineConnect=0;shape=mxgraph.rackGeneral.neatPatch;" vertex="1" parent="gjif94E9yHhyLap7A_vw-72">
          <mxGeometry x="33" y="39" width="258" height="18" as="geometry" />
        </mxCell>
        <mxCell id="F2zC-7TGeddpEsXp4Xp--29" value="" style="strokeColor=#666666;html=1;labelPosition=right;align=left;spacingLeft=15;shadow=0;dashed=0;outlineConnect=0;shape=mxgraph.rack.general.cat5e_rack_mount_patch_panel_24_ports;" vertex="1" parent="gjif94E9yHhyLap7A_vw-72">
          <mxGeometry x="33" y="93" width="258" height="18" as="geometry" />
        </mxCell>
        <mxCell id="UFV4BsDHHdRkAO3U9Y9I-9" value="" style="strokeColor=#666666;html=1;labelPosition=right;align=left;spacingLeft=15;shadow=0;dashed=0;outlineConnect=0;shape=mxgraph.rackGeneral.horCableDuct;" vertex="1" parent="gjif94E9yHhyLap7A_vw-72">
          <mxGeometry x="33" y="111" width="258" height="18" as="geometry" />
        </mxCell>
        <mxCell id="UFV4BsDHHdRkAO3U9Y9I-11" value="" style="strokeColor=#666666;html=1;labelPosition=right;align=left;spacingLeft=15;shadow=0;dashed=0;outlineConnect=0;shape=mxgraph.rackGeneral.horCableDuct;" vertex="1" parent="gjif94E9yHhyLap7A_vw-72">
          <mxGeometry x="33" y="147" width="258" height="18" as="geometry" />
        </mxCell>
        <mxCell id="UFV4BsDHHdRkAO3U9Y9I-10" value="" style="strokeColor=#666666;html=1;labelPosition=right;align=left;spacingLeft=15;shadow=0;dashed=0;outlineConnect=0;shape=mxgraph.rackGeneral.neatPatch;" vertex="1" parent="gjif94E9yHhyLap7A_vw-72">
          <mxGeometry x="33" y="165" width="258" height="18" as="geometry" />
        </mxCell>
        <mxCell id="F2zC-7TGeddpEsXp4Xp--39" value="" style="shape=mxgraph.rack.cisco.cisco_nexus_2248tp_ge_fabric_extender;html=1;labelPosition=right;align=left;spacingLeft=15;dashed=0;shadow=0;fillColor=#ffffff;" vertex="1" parent="gjif94E9yHhyLap7A_vw-72">
          <mxGeometry x="33" y="129" width="258" height="18" as="geometry" />
        </mxCell>
        <mxCell id="CbiM2CTOUDbleY8wzYMZ-1" value="" style="sketch=0;pointerEvents=1;shadow=0;dashed=0;html=1;strokeColor=none;fillColor=#005F4B;labelPosition=center;verticalLabelPosition=bottom;verticalAlign=top;align=center;outlineConnect=0;shape=mxgraph.veeam2.tape_library;fontSize=12;" parent="gjif94E9yHhyLap7A_vw-72" vertex="1">
          <mxGeometry x="33" y="489" width="258" height="144" as="geometry" />
        </mxCell>
        <mxCell id="gjif94E9yHhyLap7A_vw-94" value="" style="shape=mxgraph.rack.ibm.ibm_x3690;html=1;labelPosition=right;align=left;spacingLeft=15;dashed=0;shadow=0;fillColor=#ffffff;" vertex="1" parent="gjif94E9yHhyLap7A_vw-72">
          <mxGeometry x="33" y="651" width="258" height="36" as="geometry" />
        </mxCell>
        <mxCell id="gjif94E9yHhyLap7A_vw-92" value="" style="shape=mxgraph.rack.ibm.ibm_x3690;html=1;labelPosition=right;align=left;spacingLeft=15;dashed=0;shadow=0;fillColor=#ffffff;" vertex="1" parent="gjif94E9yHhyLap7A_vw-72">
          <mxGeometry x="33" y="687" width="258" height="36" as="geometry" />
        </mxCell>
        <mxCell id="gjif94E9yHhyLap7A_vw-91" value="" style="shape=mxgraph.rack.ibm.ibm_x3690;html=1;labelPosition=right;align=left;spacingLeft=15;dashed=0;shadow=0;fillColor=#ffffff;" vertex="1" parent="gjif94E9yHhyLap7A_vw-72">
          <mxGeometry x="33" y="723" width="258" height="36" as="geometry" />
        </mxCell>
        <mxCell id="gjif94E9yHhyLap7A_vw-74" value="" style="shape=mxgraph.rack.ibm.ibm_x3690;html=1;labelPosition=right;align=left;spacingLeft=15;dashed=0;shadow=0;fillColor=#ffffff;" vertex="1" parent="gjif94E9yHhyLap7A_vw-72">
          <mxGeometry x="33" y="777" width="258" height="36" as="geometry" />
        </mxCell>
        <mxCell id="B5yVW0hxg9Qth1KFFoBk-1" value="" style="shape=mxgraph.rack.ibm.ibm_x3690;html=1;labelPosition=right;align=left;spacingLeft=15;dashed=0;shadow=0;fillColor=#ffffff;" parent="gjif94E9yHhyLap7A_vw-72" vertex="1">
          <mxGeometry x="33" y="813" width="258" height="36" as="geometry" />
        </mxCell>
        <mxCell id="gjif94E9yHhyLap7A_vw-80" value="" style="strokeColor=#666666;html=1;verticalLabelPosition=bottom;labelBackgroundColor=#ffffff;verticalAlign=top;outlineConnect=0;shadow=0;dashed=0;shape=mxgraph.rackGeneral.rackCabinet2;fillColor2=#f4f4f4;container=1;collapsible=0;childLayout=rack;allowGaps=1;marginLeft=33;marginRight=9;marginTop=21;marginBottom=22;textColor=#666666;numDisp=descend;unitNum=48;rackUnitSize=18;" vertex="1" parent="1">
          <mxGeometry x="-450" y="-1.5" width="300" height="908.5" as="geometry" />
        </mxCell>
        <mxCell id="gjif94E9yHhyLap7A_vw-95" value="" style="strokeColor=#666666;html=1;labelPosition=right;align=left;spacingLeft=15;shadow=0;dashed=0;outlineConnect=0;shape=mxgraph.rackGeneral.horCableDuct;" vertex="1" parent="gjif94E9yHhyLap7A_vw-80">
          <mxGeometry x="33" y="21" width="258" height="18" as="geometry" />
        </mxCell>
        <mxCell id="gjif94E9yHhyLap7A_vw-97" value="" style="strokeColor=#666666;html=1;labelPosition=right;align=left;spacingLeft=15;shadow=0;dashed=0;outlineConnect=0;shape=mxgraph.rackGeneral.horCableDuct;" vertex="1" parent="gjif94E9yHhyLap7A_vw-80">
          <mxGeometry x="33" y="57" width="258" height="18" as="geometry" />
        </mxCell>
        <mxCell id="gjif94E9yHhyLap7A_vw-96" value="" style="strokeColor=#666666;html=1;labelPosition=right;align=left;spacingLeft=15;shadow=0;dashed=0;outlineConnect=0;shape=mxgraph.rackGeneral.neatPatch;" vertex="1" parent="gjif94E9yHhyLap7A_vw-80">
          <mxGeometry x="33" y="39" width="258" height="18" as="geometry" />
        </mxCell>
        <mxCell id="I6fzosCp6QrTJVA8OgAi-2" value="" style="strokeColor=#666666;html=1;labelPosition=right;align=left;spacingLeft=15;shadow=0;dashed=0;outlineConnect=0;shape=mxgraph.rackGeneral.neatPatch;" vertex="1" parent="gjif94E9yHhyLap7A_vw-80">
          <mxGeometry x="33" y="75" width="258" height="18" as="geometry" />
        </mxCell>
        <mxCell id="po6fkJNnzEr3_ZZULM6N-11" value="" style="strokeColor=#666666;html=1;labelPosition=right;align=left;spacingLeft=15;shadow=0;dashed=0;outlineConnect=0;shape=mxgraph.rack.general.cat5e_rack_mount_patch_panel_24_ports;" vertex="1" parent="gjif94E9yHhyLap7A_vw-80">
          <mxGeometry x="33" y="93" width="258" height="18" as="geometry" />
        </mxCell>
        <mxCell id="I6fzosCp6QrTJVA8OgAi-5" value="" style="strokeColor=#666666;html=1;labelPosition=right;align=left;spacingLeft=15;shadow=0;dashed=0;outlineConnect=0;shape=mxgraph.rackGeneral.horCableDuct;" vertex="1" parent="gjif94E9yHhyLap7A_vw-80">
          <mxGeometry x="33" y="111" width="258" height="18" as="geometry" />
        </mxCell>
        <mxCell id="F2zC-7TGeddpEsXp4Xp--38" value="" style="shape=mxgraph.rack.cisco.cisco_nexus_2248tp_ge_fabric_extender;html=1;labelPosition=right;align=left;spacingLeft=15;dashed=0;shadow=0;fillColor=#ffffff;" vertex="1" parent="gjif94E9yHhyLap7A_vw-80">
          <mxGeometry x="33" y="129" width="258" height="18" as="geometry" />
        </mxCell>
        <mxCell id="gjif94E9yHhyLap7A_vw-98" value="" style="strokeColor=#666666;html=1;labelPosition=right;align=left;spacingLeft=15;shadow=0;dashed=0;outlineConnect=0;shape=mxgraph.rackGeneral.neatPatch;" vertex="1" parent="gjif94E9yHhyLap7A_vw-80">
          <mxGeometry x="33" y="165" width="258" height="18" as="geometry" />
        </mxCell>
        <mxCell id="I6fzosCp6QrTJVA8OgAi-1" value="" style="strokeColor=#666666;html=1;labelPosition=right;align=left;spacingLeft=15;shadow=0;dashed=0;outlineConnect=0;shape=mxgraph.rackGeneral.horCableDuct;" vertex="1" parent="gjif94E9yHhyLap7A_vw-80">
          <mxGeometry x="33" y="147" width="258" height="18" as="geometry" />
        </mxCell>
        <mxCell id="po6fkJNnzEr3_ZZULM6N-7" value="" style="shape=mxgraph.rack.ibm.ibm_x3630_m3;html=1;labelPosition=right;align=left;spacingLeft=15;dashed=0;shadow=0;fillColor=#ffffff;fontSize=10;" vertex="1" parent="gjif94E9yHhyLap7A_vw-80">
          <mxGeometry x="33" y="453" width="258" height="54" as="geometry" />
        </mxCell>
        <mxCell id="po6fkJNnzEr3_ZZULM6N-4" value="" style="shape=mxgraph.rack.ibm.ibm_x3630_m3;html=1;labelPosition=right;align=left;spacingLeft=15;dashed=0;shadow=0;fillColor=#ffffff;fontSize=10;" vertex="1" parent="gjif94E9yHhyLap7A_vw-80">
          <mxGeometry x="33" y="507" width="258" height="54" as="geometry" />
        </mxCell>
        <mxCell id="po6fkJNnzEr3_ZZULM6N-5" value="" style="shape=mxgraph.rack.cisco.cisco_ucs_c240_m3_server;html=1;labelPosition=right;align=left;spacingLeft=15;dashed=0;shadow=0;fillColor=#ffffff;fontSize=10;" vertex="1" parent="gjif94E9yHhyLap7A_vw-80">
          <mxGeometry x="33" y="561" width="258" height="36" as="geometry" />
        </mxCell>
        <mxCell id="po6fkJNnzEr3_ZZULM6N-6" value="" style="shape=mxgraph.rack.cisco.cisco_ucs_c240_m3_server;html=1;labelPosition=right;align=left;spacingLeft=15;dashed=0;shadow=0;fillColor=#ffffff;fontSize=10;" vertex="1" parent="gjif94E9yHhyLap7A_vw-80">
          <mxGeometry x="33" y="597" width="258" height="36" as="geometry" />
        </mxCell>
        <mxCell id="gjif94E9yHhyLap7A_vw-93" value="" style="shape=mxgraph.rack.ibm.ibm_x3690;html=1;labelPosition=right;align=left;spacingLeft=15;dashed=0;shadow=0;fillColor=#ffffff;" vertex="1" parent="gjif94E9yHhyLap7A_vw-80">
          <mxGeometry x="33" y="651" width="258" height="36" as="geometry" />
        </mxCell>
        <mxCell id="gjif94E9yHhyLap7A_vw-89" value="" style="shape=mxgraph.rack.ibm.ibm_x3690;html=1;labelPosition=right;align=left;spacingLeft=15;dashed=0;shadow=0;fillColor=#ffffff;" vertex="1" parent="gjif94E9yHhyLap7A_vw-80">
          <mxGeometry x="33" y="687" width="258" height="36" as="geometry" />
        </mxCell>
        <mxCell id="gjif94E9yHhyLap7A_vw-90" value="" style="shape=mxgraph.rack.ibm.ibm_x3690;html=1;labelPosition=right;align=left;spacingLeft=15;dashed=0;shadow=0;fillColor=#ffffff;" vertex="1" parent="gjif94E9yHhyLap7A_vw-80">
          <mxGeometry x="33" y="723" width="258" height="36" as="geometry" />
        </mxCell>
        <mxCell id="gjif94E9yHhyLap7A_vw-88" value="" style="shape=mxgraph.rack.ibm.ibm_1754_local_console_manager;html=1;labelPosition=right;align=left;spacingLeft=15;dashed=0;shadow=0;fillColor=#ffffff;movable=1;resizable=1;rotatable=1;deletable=1;editable=1;connectable=1;" vertex="1" parent="gjif94E9yHhyLap7A_vw-80">
          <mxGeometry x="33" y="777" width="258" height="18" as="geometry" />
        </mxCell>
        <mxCell id="gjif94E9yHhyLap7A_vw-87" value="" style="shape=mxgraph.rack.ibm.ibm_x3690;html=1;labelPosition=right;align=left;spacingLeft=15;dashed=0;shadow=0;fillColor=#ffffff;" vertex="1" parent="gjif94E9yHhyLap7A_vw-80">
          <mxGeometry x="33" y="813" width="258" height="36" as="geometry" />
        </mxCell>
        <mxCell id="gjif94E9yHhyLap7A_vw-103" value="Ленточная &lt;br&gt;библиотека МИС" style="text;html=1;align=center;verticalAlign=middle;resizable=0;points=[];autosize=1;strokeColor=none;fillColor=none;fontSize=10;" vertex="1" parent="1">
          <mxGeometry x="325" y="518.5" width="100" height="40" as="geometry" />
        </mxCell>
        <mxCell id="po6fkJNnzEr3_ZZULM6N-8" value="Гипервизор 1" style="text;html=1;align=center;verticalAlign=middle;resizable=0;points=[];autosize=1;strokeColor=none;fillColor=none;fontSize=10;" vertex="1" parent="1">
          <mxGeometry x="-155" y="810" width="90" height="30" as="geometry" />
        </mxCell>
        <mxCell id="po6fkJNnzEr3_ZZULM6N-9" value="Гипервизор 2" style="text;html=1;align=center;verticalAlign=middle;resizable=0;points=[];autosize=1;strokeColor=none;fillColor=none;fontSize=10;" vertex="1" parent="1">
          <mxGeometry x="330" y="810" width="90" height="30" as="geometry" />
        </mxCell>
        <mxCell id="po6fkJNnzEr3_ZZULM6N-10" value="Гипервизор 3" style="text;html=1;align=center;verticalAlign=middle;resizable=0;points=[];autosize=1;strokeColor=none;fillColor=none;fontSize=10;" vertex="1" parent="1">
          <mxGeometry x="330" y="780" width="90" height="30" as="geometry" />
        </mxCell>
        <mxCell id="UFV4BsDHHdRkAO3U9Y9I-1" value="Zabbix" style="text;strokeColor=none;align=center;fillColor=none;html=1;verticalAlign=middle;whiteSpace=wrap;rounded=0;" vertex="1" parent="1">
          <mxGeometry x="-140" y="771.5" width="60" height="30" as="geometry" />
        </mxCell>
        <mxCell id="UFV4BsDHHdRkAO3U9Y9I-2" value="МИС-1" style="text;html=1;align=center;verticalAlign=middle;resizable=0;points=[];autosize=1;strokeColor=none;fillColor=none;fontSize=10;" vertex="1" parent="1">
          <mxGeometry x="-145" y="726.5" width="60" height="30" as="geometry" />
        </mxCell>
        <mxCell id="UFV4BsDHHdRkAO3U9Y9I-3" value="МИС-2" style="text;html=1;align=center;verticalAlign=middle;resizable=0;points=[];autosize=1;strokeColor=none;fillColor=none;fontSize=10;" vertex="1" parent="1">
          <mxGeometry x="340" y="726.5" width="60" height="30" as="geometry" />
        </mxCell>
        <mxCell id="UFV4BsDHHdRkAO3U9Y9I-4" value="БД-1" style="text;html=1;align=center;verticalAlign=middle;resizable=0;points=[];autosize=1;strokeColor=none;fillColor=none;fontSize=10;" vertex="1" parent="1">
          <mxGeometry x="-135" y="684.5" width="50" height="30" as="geometry" />
        </mxCell>
        <mxCell id="UFV4BsDHHdRkAO3U9Y9I-5" value="БД-1" style="text;html=1;align=center;verticalAlign=middle;resizable=0;points=[];autosize=1;strokeColor=none;fillColor=none;fontSize=10;" vertex="1" parent="1">
          <mxGeometry x="340" y="684.5" width="50" height="30" as="geometry" />
        </mxCell>
        <mxCell id="UFV4BsDHHdRkAO3U9Y9I-7" value="1С-1" style="text;html=1;align=center;verticalAlign=middle;resizable=0;points=[];autosize=1;strokeColor=none;fillColor=none;fontSize=10;" vertex="1" parent="1">
          <mxGeometry x="-135" y="654.5" width="50" height="30" as="geometry" />
        </mxCell>
        <mxCell id="UFV4BsDHHdRkAO3U9Y9I-8" value="1С-2" style="text;html=1;align=center;verticalAlign=middle;resizable=0;points=[];autosize=1;strokeColor=none;fillColor=none;fontSize=10;" vertex="1" parent="1">
          <mxGeometry x="340" y="654.5" width="50" height="30" as="geometry" />
        </mxCell>
        <mxCell id="u9yNdqpe3HLOTpPfALS9-1" value="СХД&amp;nbsp; Прод" style="text;html=1;align=center;verticalAlign=middle;resizable=0;points=[];autosize=1;strokeColor=none;fillColor=none;fontSize=10;" vertex="1" parent="1">
          <mxGeometry x="-140" y="540" width="70" height="30" as="geometry" />
        </mxCell>
      </root>
    </mxGraphModel>
  </diagram>
</mxfile>
